<?xml version="1.0" standalone="no"?>
<!DOCTYPE svg PUBLIC "-//W3C//DTD SVG 20010904//EN" "http://www.w3.org/TR/2001/REC-SVG-20010904/DTD/svg10.dtd">
<svg version="1.0" xmlns="http://www.w3.org/2000/svg" xmlns:xlink="http://www.w3.org/1999/xlink" width="100%" height="100%" viewBox="0 0 340.000000 250.000000" preserveAspectRatio="xMidYMid meet" color-interpolation-filters="sRGB">
<rect x="0" y="0" width="100%" height="100%" fill="#ff6600" fill-opacity="1"></rect>
<rect x="0" y="0" width="100%" height="100%" fill="url(#watermark)" fill-opacity="1"></rect>
<g fill="#fff" transform="translate(36.05787658691406,51.582496643066406)">
    <path fill-opacity="0" stroke="#fff" stroke-width="3" d="M 136.83499908447266 44.85050010681152 A 73.41749954223633 73.41749954223633 0 1 0 136.83499908447266 101.98449897766113"></path>
    <g transform="translate(10,44.85050010681152)">
        <rect stroke-width="2" x="0" y="0" width="253.6699981689453" height="57.13399887084961" fill-opacity="0"></rect>
        <g transform="translate(10,3)">
            <g transform="translate(69.41829299926758,0)">
                <path transform="translate(-1.634,28.681)" d="M8.69-20.94L20.98-20.94L20.98-16.47L10.79-16.47L10.79-16.47Q9.03-16.47 8.56-16.30L8.56-16.30L8.56-16.30Q7.57-15.95 7.57-14.62L7.57-14.62L7.57-14.62Q7.57-13.50 8.51-12.90L8.51-12.90L8.51-12.90Q9.03-12.56 11.31-12.56L11.31-12.56L14.71-12.56L14.71-12.56Q17.97-12.56 19.87-11.18L19.87-11.18L19.87-11.18Q21.97-9.63 21.97-6.62L21.97-6.62L21.97-6.62Q21.97-4.34 20.68-2.45L20.68-2.45L20.68-2.45Q19.74-0.95 18.38-0.47L18.38-0.47L18.38-0.47Q17.03 0 13.85 0L13.85 0L1.94 0L1.94-4.47L12.21-4.47L12.21-4.47Q14.10-4.47 14.79-4.52L14.79-4.52L14.79-4.52Q16.34-4.69 16.34-6.28L16.34-6.28L16.34-6.28Q16.34-7.57 15.31-8.04L15.31-8.04L15.31-8.04Q14.79-8.30 12.81-8.30L12.81-8.30L9.33-8.30L9.33-8.30Q7.27-8.30 6.17-8.56L6.17-8.56L6.17-8.56Q5.07-8.82 4.13-9.50L4.13-9.50L4.13-9.50Q2.97-10.32 2.30-11.76L2.30-11.76L2.30-11.76Q1.63-13.20 1.63-14.84L1.63-14.84L1.63-14.84Q1.63-17.97 3.91-19.82L3.91-19.82L3.91-19.82Q5.29-20.94 8.69-20.94L8.69-20.94ZM31.35-12.73L43.47-12.73L43.47-8.26L31.35-8.26L31.35-8.26Q31.52-6.19 32.68-5.33L32.68-5.33L32.68-5.33Q33.84-4.47 36.46-4.47L36.46-4.47L43.47-4.47L43.47 0L35.82 0L35.82 0Q33.33 0 31.76-0.45L31.76-0.45L31.76-0.45Q30.19-0.90 28.81-1.94L28.81-1.94L28.81-1.94Q24.98-4.90 24.98-10.75L24.98-10.75L24.98-10.75Q24.98-14.53 27.00-17.37L27.00-17.37L27.00-17.37Q28.38-19.31 30.32-20.12L30.32-20.12L30.32-20.12Q32.25-20.94 35.39-20.94L35.39-20.94L43.47-20.94L43.47-16.47L35.82-16.47L35.82-16.47Q33.45-16.47 32.51-15.67L32.51-15.67L32.51-15.67Q31.56-14.88 31.35-12.73L31.35-12.73ZM56.07 0L56.07-12.56L45.45-28.68L52.59-28.68L59.17-17.46L66.09-28.68L73.36-28.68L62.18-12.34L62.18 0L56.07 0ZM83.64-12.73L90.69-12.73L90.69-12.73Q90.69-14.92 89.81-15.70L89.81-15.70L89.81-15.70Q88.92-16.47 86.30-16.47L86.30-16.47L76.58-16.47L76.58-20.94L86.30-20.94L86.30-20.94Q88.92-20.94 89.91-20.83L89.91-20.83L89.91-20.83Q90.90-20.73 91.93-20.43L91.93-20.43L91.93-20.43Q96.71-18.62 96.45-11.78L96.45-11.78L96.45 0L84.32 0L84.32 0Q81.06 0 79.81-0.19L79.81-0.19L79.81-0.19Q78.56-0.39 77.62-0.99L77.62-0.99L77.62-0.99Q75.08-2.71 75.08-6.19L75.08-6.19L75.08-6.19Q75.08-8.30 76.09-9.95L76.09-9.95L76.09-9.95Q77.10-11.61 78.78-12.21L78.78-12.21L78.78-12.21Q80.24-12.73 83.64-12.73L83.64-12.73ZM90.69-4.47L90.69-8.26L84.07-8.26L83.08-8.26L83.08-8.26Q82.09-8.26 81.51-7.74L81.51-7.74L81.51-7.74Q80.93-7.22 80.93-6.32L80.93-6.32L80.93-6.32Q80.93-5.33 81.64-4.90L81.64-4.90L81.64-4.90Q82.35-4.47 84.07-4.47L84.07-4.47L90.69-4.47Z"></path>
            </g>
            <g transform="translate(0,41.68000030517578)">
                <path transform="translate(-0.46875,8.125)" d="M 5.74 -8.05 L 5.74 -8.05 L 5.74 -8.05 Q 6.8 -7.89 6.8 -7.81 L 6.8 -7.81 L 6.8 -7.81 Q 6.8 -7.77 6.76 -7.7 L 6.76 -7.7 L 6.76 -7.7 Q 6.48 -7.42 6.21 -6.91 L 6.21 -6.91 L 7.58 -6.91 L 7.58 -6.91 Q 8.09 -6.91 8.71 -6.99 L 8.71 -6.99 L 8.71 -6.99 Q 8.95 -6.99 8.95 -6.99 L 8.95 -6.99 L 8.95 -6.99 Q 8.05 -4.92 7.38 -4.38 L 7.38 -4.38 L 7.38 -4.38 Q 8.4 -3.79 9.69 -3.67 L 9.69 -3.67 L 9.69 -3.67 Q 9.22 -3.05 9.18 -2.73 L 9.18 -2.73 L 9.18 -2.73 Q 7.7 -3.2 6.84 -3.91 L 6.84 -3.91 L 6.84 -3.91 Q 6.17 -3.36 5.2 -2.89 L 5.2 -2.89 L 5.2 -2.89 Q 5.59 -2.81 5.86 -2.81 L 5.86 -2.81 L 7.7 -2.81 L 7.7 -2.81 Q 8.09 -2.81 8.55 -2.89 L 8.55 -2.89 L 8.55 -2.89 Q 8.52 -2.34 8.52 -1.99 L 8.52 -1.99 L 8.52 -0.35 L 8.52 -0.35 Q 8.52 0.16 8.55 0.66 L 8.55 0.66 L 7.77 0.66 L 7.81 0 L 5.78 0 L 5.82 0.74 L 5.04 0.74 L 5.04 0.74 Q 5.08 0.23 5.08 -0.31 L 5.08 -0.31 L 5.08 -2.03 L 5.08 -2.03 Q 5.08 -2.66 5.04 -2.77 L 5.04 -2.77 L 5.04 -2.77 Q 4.96 -2.73 4.84 -2.7 L 4.84 -2.7 L 4.84 -2.7 Q 4.77 -2.66 4.73 -2.66 L 4.73 -2.66 L 4.73 -2.66 Q 4.57 -3.01 4.1 -3.32 L 4.1 -3.32 L 4.1 -3.32 Q 5.31 -3.67 6.37 -4.38 L 6.37 -4.38 L 6.37 -4.38 Q 5.82 -5.04 5.63 -5.74 L 5.63 -5.74 L 5.04 -4.69 L 5.04 -4.69 Q 4.65 -4.84 4.3 -4.96 L 4.3 -4.96 L 4.3 -4.96 Q 5.39 -6.52 5.74 -8.05 Z M 3.44 -4.92 L 3.44 -6.6 L 1.91 -6.6 L 1.91 -4.92 L 3.44 -4.92 Z M 7.85 -6.25 L 5.98 -6.25 L 5.98 -6.25 Q 6.21 -5.7 6.88 -4.8 L 6.88 -4.8 L 6.88 -4.8 Q 7.38 -5.31 7.85 -6.25 L 7.85 -6.25 Z M 7.81 -2.15 L 5.78 -2.15 L 5.78 -0.63 L 7.81 -0.63 L 7.81 -2.15 Z M 4.26 -3.13 L 4.26 -3.13 L 4.26 -2.3 L 4.26 -2.3 Q 4.26 -2.3 4.22 -2.3 L 4.22 -2.3 L 4.22 -2.3 Q 4.02 -2.38 3.48 -2.38 L 3.48 -2.38 L 3.13 -2.38 L 3.13 -0.78 L 3.13 -0.78 Q 3.95 -0.98 4.45 -1.17 L 4.45 -1.17 L 4.38 -0.35 L 4.38 -0.35 Q 1.68 0.16 0.7 0.51 L 0.7 0.51 L 0.47 -0.35 L 0.47 -0.35 Q 0.74 -0.35 1.05 -0.43 L 1.05 -0.43 L 1.05 -2.34 L 1.05 -2.34 Q 1.05 -2.93 0.98 -3.44 L 0.98 -3.44 L 0.98 -3.44 Q 1.91 -3.36 1.95 -3.24 L 1.95 -3.24 L 1.95 -3.24 Q 1.95 -3.2 1.91 -3.09 L 1.91 -3.09 L 1.91 -3.09 Q 1.8 -2.81 1.8 -2.38 L 1.8 -2.38 L 1.8 -0.55 L 2.38 -0.66 L 2.38 -4.26 L 1.88 -4.26 L 1.88 -4.26 Q 1.6 -4.26 1.13 -4.22 L 1.13 -4.22 L 1.13 -4.22 Q 1.17 -4.65 1.17 -4.92 L 1.17 -4.92 L 1.17 -6.52 L 1.13 -7.3 L 1.13 -7.3 Q 1.76 -7.27 2.03 -7.27 L 2.03 -7.27 L 3.36 -7.27 L 3.36 -7.27 Q 3.75 -7.27 4.22 -7.3 L 4.22 -7.3 L 4.22 -7.3 Q 4.18 -6.84 4.18 -6.56 L 4.18 -6.56 L 4.18 -5.08 L 4.18 -5.08 Q 4.18 -4.61 4.22 -4.22 L 4.22 -4.22 L 4.22 -4.22 Q 3.83 -4.26 3.52 -4.26 L 3.52 -4.26 L 3.13 -4.26 L 3.13 -3.09 L 3.48 -3.09 L 3.48 -3.09 Q 3.95 -3.09 4.18 -3.13 L 4.18 -3.13 L 4.18 -3.13 Q 4.26 -3.13 4.26 -3.13 Z M 16.17 -8.13 L 16.17 -8.13 L 16.17 -8.13 Q 17.23 -7.81 17.23 -7.7 L 17.23 -7.7 L 17.23 -7.7 Q 17.23 -7.66 17.15 -7.62 L 17.15 -7.62 L 17.15 -7.62 Q 16.99 -7.54 16.95 -7.38 L 16.95 -7.38 L 16.95 -7.38 Q 16.6 -6.8 16.41 -6.17 L 16.41 -6.17 L 17.85 -6.17 L 17.85 -6.17 Q 18.71 -6.17 19.18 -6.21 L 19.18 -6.21 L 19.18 -6.21 Q 18.87 -1.09 18.79 -0.2 L 18.79 -0.2 L 18.79 -0.2 Q 18.67 0.9 16.64 0.98 L 16.64 0.98 L 16.64 0.98 Q 16.52 0.39 16.17 -0.04 L 16.17 -0.04 L 16.17 -0.04 Q 17.23 0.16 17.77 -0.08 L 17.77 -0.08 L 17.77 -0.08 Q 18.05 -0.04 18.16 -3.55 L 18.16 -3.55 L 18.16 -3.55 Q 18.24 -4.8 18.28 -5.55 L 18.28 -5.55 L 16.13 -5.55 L 16.13 -5.55 Q 15.74 -4.8 15.2 -3.83 L 15.2 -3.83 L 15.2 -3.83 Q 14.84 -4.06 14.49 -4.14 L 14.49 -4.14 L 14.49 -0.63 L 14.49 -0.63 Q 14.49 0.35 14.53 0.63 L 14.53 0.63 L 13.63 0.63 L 13.63 0.63 Q 13.67 0.27 13.67 -0.31 L 13.67 -0.31 L 11.76 -0.31 L 11.76 -0.31 Q 11.76 0.27 11.8 0.7 L 11.8 0.7 L 10.9 0.7 L 10.9 0.7 Q 10.94 0.35 10.94 -0.59 L 10.94 -0.59 L 10.94 -4.77 L 10.94 -4.77 Q 10.94 -4.92 10.9 -5.51 L 10.9 -5.51 L 10.9 -5.51 Q 10.9 -6.02 10.9 -6.13 L 10.9 -6.13 L 10.9 -6.13 Q 11.48 -6.09 11.76 -6.09 L 11.76 -6.09 L 12.03 -6.09 L 12.03 -6.09 Q 12.15 -6.72 12.23 -8.01 L 12.23 -8.01 L 12.23 -8.01 Q 13.32 -7.89 13.24 -7.73 L 13.24 -7.73 L 13.24 -7.73 Q 13.24 -7.66 13.16 -7.58 L 13.16 -7.58 L 13.16 -7.58 Q 13.09 -7.5 13.05 -7.38 L 13.05 -7.38 L 13.05 -7.38 Q 12.93 -7.11 12.81 -6.6 L 12.81 -6.6 L 12.81 -6.6 Q 12.73 -6.29 12.7 -6.09 L 12.7 -6.09 L 13.36 -6.09 L 13.36 -6.09 Q 13.67 -6.09 14.53 -6.13 L 14.53 -6.13 L 14.53 -6.13 Q 14.49 -5.86 14.49 -4.88 L 14.49 -4.88 L 14.49 -4.34 L 14.49 -4.34 Q 15.7 -5.7 16.17 -8.13 Z M 13.67 -5.47 L 11.76 -5.47 L 11.76 -3.44 L 13.67 -3.44 L 13.67 -5.47 Z M 15.51 -3.48 L 16.17 -3.87 L 16.17 -3.87 Q 16.41 -3.55 16.99 -2.42 L 16.99 -2.42 L 16.99 -2.42 Q 17.15 -2.19 17.19 -2.07 L 17.19 -2.07 L 16.45 -1.68 L 16.45 -1.68 Q 16.33 -2.15 15.51 -3.48 L 15.51 -3.48 Z M 13.67 -2.85 L 11.76 -2.85 L 11.76 -0.94 L 13.67 -0.94 L 13.67 -2.85 Z M 22.07 -8.01 L 22.07 -8.01 L 22.07 -8.01 Q 23.13 -7.93 23.16 -7.81 L 23.16 -7.81 L 23.16 -7.81 Q 23.16 -7.77 23.09 -7.66 L 23.09 -7.66 L 23.09 -7.66 Q 22.93 -7.46 22.89 -7.34 L 22.89 -7.34 L 22.89 -7.34 Q 22.7 -6.64 22.58 -5.9 L 22.58 -5.9 L 23.36 -5.9 L 23.36 -5.9 Q 24.1 -5.9 24.49 -5.98 L 24.49 -5.98 L 24.49 -5.98 Q 24.1 -3.2 23.55 -1.64 L 23.55 -1.64 L 23.55 -1.64 Q 23.67 -1.56 23.91 -1.41 L 23.91 -1.41 L 23.91 -1.41 Q 24.77 -0.86 25 -0.63 L 25 -0.63 L 24.41 0 L 24.41 0 Q 23.83 -0.51 23.24 -0.9 L 23.24 -0.9 L 23.24 -0.9 Q 22.62 0.08 21.13 0.9 L 21.13 0.9 L 21.13 0.9 Q 20.9 0.47 20.43 0.16 L 20.43 0.16 L 20.43 0.16 Q 21.95 -0.23 22.66 -1.37 L 22.66 -1.37 L 22.66 -1.37 Q 22.46 -1.48 20.98 -2.34 L 20.98 -2.34 L 20.98 -2.34 Q 21.37 -3.09 21.72 -5.16 L 21.72 -5.16 L 21.56 -5.16 L 21.56 -5.16 Q 20.98 -5.16 20.51 -5.04 L 20.51 -5.04 L 20.51 -5.98 L 20.51 -5.98 Q 21.05 -5.9 21.64 -5.9 L 21.64 -5.9 L 21.84 -5.9 L 21.84 -5.9 Q 21.84 -5.94 21.88 -6.09 L 21.88 -6.09 L 21.88 -6.09 Q 22.07 -7.5 22.07 -8.01 Z M 29.34 -7.38 L 29.34 -7.38 L 29.34 -6.45 L 29.34 -6.45 Q 28.87 -6.41 27.5 -5.08 L 27.5 -5.08 L 27.5 -4.02 L 28.16 -4.02 L 28.16 -4.02 Q 29.06 -4.02 29.53 -4.1 L 29.53 -4.1 L 29.53 -3.16 L 29.53 -3.16 Q 28.95 -3.24 28.16 -3.24 L 28.16 -3.24 L 27.5 -3.24 L 27.5 0.16 L 27.5 0.16 Q 27.46 0.98 25.86 0.9 L 25.86 0.9 L 25.86 0.9 Q 25.86 0.31 25.31 -0.16 L 25.31 -0.16 L 25.31 -0.16 Q 26.8 0.12 26.68 -0.55 L 26.68 -0.55 L 26.68 -3.2 L 25.9 -3.2 L 25.9 -3.2 Q 25.04 -3.2 24.38 -3.13 L 24.38 -3.13 L 24.38 -4.1 L 24.38 -4.1 Q 24.84 -4.02 25.94 -4.02 L 25.94 -4.02 L 26.68 -4.02 L 26.68 -5.2 L 26.68 -5.2 Q 27.07 -5.51 28.2 -6.6 L 28.2 -6.6 L 25.9 -6.6 L 25.9 -6.6 Q 25.16 -6.6 24.61 -6.52 L 24.61 -6.52 L 24.61 -7.34 L 24.61 -7.34 Q 24.92 -7.27 25.86 -7.27 L 25.86 -7.27 L 27.97 -7.27 L 27.97 -7.27 Q 28.87 -7.27 29.34 -7.38 Z M 23.55 -5.16 L 23.55 -5.16 L 22.42 -5.16 L 22.42 -5.16 Q 22.34 -4.84 22.23 -4.26 L 22.23 -4.26 L 22.23 -4.26 Q 21.99 -3.13 21.88 -2.66 L 21.88 -2.66 L 21.88 -2.66 Q 22.07 -2.54 22.62 -2.23 L 22.62 -2.23 L 22.62 -2.23 Q 22.85 -2.11 22.93 -2.07 L 22.93 -2.07 L 22.93 -2.07 Q 23.32 -3.2 23.55 -5.16 Z M 31.84 -8.05 L 31.84 -8.05 L 31.84 -8.05 Q 32.81 -8.05 32.85 -7.93 L 32.85 -7.93 L 32.85 -7.93 Q 32.85 -7.89 32.81 -7.85 L 32.81 -7.85 L 32.81 -7.85 Q 32.66 -7.62 32.66 -7.3 L 32.66 -7.3 L 32.66 -5.7 L 32.66 -5.7 Q 33.98 -5.7 34.06 -5.78 L 34.06 -5.78 L 34.06 -4.92 L 34.06 -4.92 Q 33.87 -5.04 32.66 -5.04 L 32.66 -5.04 L 32.66 -2.46 L 32.66 -2.46 Q 32.77 -2.54 33.28 -2.73 L 33.28 -2.73 L 33.28 -2.73 Q 33.71 -2.93 33.95 -3.05 L 33.95 -3.05 L 33.98 -2.19 L 33.98 -2.19 Q 31.95 -1.45 30.98 -0.98 L 30.98 -0.98 L 30.98 -0.98 Q 30.82 -0.9 30.78 -0.9 L 30.78 -0.9 L 30.35 -1.88 L 30.35 -1.88 Q 30.35 -1.88 30.39 -1.88 L 30.39 -1.88 L 30.39 -1.88 Q 30.82 -1.84 31.88 -2.19 L 31.88 -2.19 L 31.88 -5 L 31.88 -5 Q 30.98 -5 30.47 -4.92 L 30.47 -4.92 L 30.47 -5.78 L 30.47 -5.78 Q 30.55 -5.7 31.88 -5.7 L 31.88 -5.7 L 31.88 -7.3 L 31.88 -7.3 Q 31.88 -7.66 31.84 -8.05 Z M 39.41 -7.42 L 39.41 -7.42 L 39.41 -6.48 L 39.41 -6.48 Q 39.1 -6.56 37.15 -6.56 L 37.15 -6.56 L 37.15 -6.56 Q 36.91 -5.66 36.8 -5.31 L 36.8 -5.31 L 36.8 -0.78 L 36.8 -0.78 Q 36.8 0.59 36.88 0.94 L 36.88 0.94 L 35.94 0.94 L 35.94 0.94 Q 36.02 0.82 36.02 -0.7 L 36.02 -0.7 L 36.02 -3.48 L 36.02 -3.48 Q 35.12 -1.6 33.83 -0.27 L 33.83 -0.27 L 33.83 -0.27 Q 33.36 -0.66 32.85 -0.82 L 32.85 -0.82 L 32.85 -0.82 Q 35.35 -2.46 36.29 -6.6 L 36.29 -6.6 L 35.7 -6.6 L 35.7 -6.6 Q 34.34 -6.6 33.83 -6.52 L 33.83 -6.52 L 33.83 -7.42 L 33.83 -7.42 Q 33.91 -7.34 35.7 -7.34 L 35.7 -7.34 L 37.19 -7.34 L 37.19 -7.34 Q 39.06 -7.34 39.41 -7.42 Z M 36.95 -3.71 L 37.81 -4.14 L 37.81 -4.14 Q 38.75 -3.05 39.57 -1.6 L 39.57 -1.6 L 38.63 -1.09 L 38.63 -1.09 Q 37.93 -2.58 36.95 -3.71 L 36.95 -3.71 Z M 49.18 -7.5 L 49.18 -7.5 L 49.18 -6.52 L 49.18 -6.52 Q 48.09 -6.6 47.23 -6.6 L 47.23 -6.6 L 46.02 -6.6 L 46.02 -6.6 Q 45.82 -6.13 45.47 -5.43 L 45.47 -5.43 L 45.47 -1.17 L 45.47 -1.17 Q 45.47 0.12 45.51 0.7 L 45.51 0.7 L 44.53 0.7 L 44.53 0.7 Q 44.61 -0.23 44.61 -1.21 L 44.61 -1.21 L 44.61 -4.3 L 44.61 -4.3 Q 43.55 -2.81 41.29 -1.05 L 41.29 -1.05 L 41.29 -1.05 Q 40.82 -1.52 40.31 -1.72 L 40.31 -1.72 L 40.31 -1.72 Q 43.36 -3.16 45.16 -6.6 L 45.16 -6.6 L 42.73 -6.6 L 42.73 -6.6 Q 41.91 -6.6 40.74 -6.52 L 40.74 -6.52 L 40.74 -7.5 L 40.74 -7.5 Q 41.72 -7.38 42.73 -7.38 L 42.73 -7.38 L 47.23 -7.38 L 47.23 -7.38 Q 48.44 -7.38 49.18 -7.5 Z M 46.05 -4.3 L 46.76 -4.8 L 46.76 -4.8 Q 48.13 -3.52 49.41 -1.88 L 49.41 -1.88 L 48.48 -1.21 L 48.48 -1.21 Q 47.54 -2.77 46.05 -4.3 L 46.05 -4.3 Z M 54.45 -8.13 L 54.45 -8.13 L 54.45 -8.13 Q 54.57 -8.09 54.73 -8.05 L 54.73 -8.05 L 54.73 -8.05 Q 55.55 -7.93 55.51 -7.81 L 55.51 -7.81 L 55.51 -7.81 Q 55.51 -7.77 55.43 -7.7 L 55.43 -7.7 L 55.43 -7.7 Q 55.16 -7.38 54.77 -6.56 L 54.77 -6.56 L 57.42 -6.56 L 57.42 -6.56 Q 58.98 -6.56 59.45 -6.64 L 59.45 -6.64 L 59.45 -5.74 L 59.45 -5.74 Q 59.1 -5.78 57.42 -5.82 L 57.42 -5.82 L 54.45 -5.82 L 54.45 -5.82 Q 54.02 -5.08 53.2 -3.95 L 53.2 -3.95 L 53.2 -3.95 Q 53.09 -3.79 53.05 -3.71 L 53.05 -3.71 L 53.05 -0.12 L 53.05 -0.12 Q 53.09 1.02 53.09 0.98 L 53.09 0.98 L 52.15 0.98 L 52.15 0.98 Q 52.23 0.55 52.23 -0.2 L 52.23 -0.2 L 52.23 -2.85 L 52.23 -2.85 Q 51.33 -1.95 50.9 -1.64 L 50.9 -1.64 L 50.9 -1.64 Q 50.51 -2.07 50.16 -2.27 L 50.16 -2.27 L 50.16 -2.27 Q 51.25 -2.93 52.23 -3.87 L 52.23 -3.87 L 52.19 -4.53 L 52.19 -4.53 Q 52.46 -4.53 52.73 -4.49 L 52.73 -4.49 L 52.73 -4.49 Q 53.13 -4.92 53.59 -5.82 L 53.59 -5.82 L 52.73 -5.82 L 52.73 -5.82 Q 52.3 -5.82 51.56 -5.78 L 51.56 -5.78 L 51.56 -5.78 Q 51.05 -5.78 50.86 -5.78 L 50.86 -5.78 L 50.86 -6.68 L 50.86 -6.68 Q 51.76 -6.6 52.73 -6.6 L 52.73 -6.6 L 53.95 -6.6 L 53.95 -6.6 Q 54.3 -7.3 54.45 -8.13 Z M 55.74 -5.16 L 55.74 -5.16 L 55.74 -5.16 Q 56.6 -5.2 56.72 -5.08 L 56.72 -5.08 L 56.72 -5.08 Q 56.72 -5 56.68 -4.84 L 56.68 -4.84 L 56.68 -4.84 Q 56.6 -4.65 56.6 -4.38 L 56.6 -4.38 L 56.6 -3.44 L 57.42 -3.44 L 57.42 -3.44 Q 57.89 -3.44 58.98 -3.48 L 58.98 -3.48 L 58.98 -2.62 L 58.98 -2.62 Q 58.98 -2.62 58.83 -2.62 L 58.83 -2.62 L 58.83 -2.62 Q 57.73 -2.7 57.42 -2.7 L 57.42 -2.7 L 56.6 -2.7 L 56.6 -0.27 L 57.58 -0.27 L 57.58 -0.27 Q 58.98 -0.31 59.34 -0.35 L 59.34 -0.35 L 59.34 0.43 L 59.34 0.43 Q 59.22 0.43 58.79 0.43 L 58.79 0.43 L 58.79 0.43 Q 58.01 0.39 57.58 0.39 L 57.58 0.39 L 54.65 0.39 L 54.65 0.39 Q 53.91 0.39 53.28 0.47 L 53.28 0.47 L 53.28 -0.35 L 53.28 -0.35 Q 53.55 -0.31 54.61 -0.31 L 54.61 -0.31 L 54.61 -0.31 Q 55.35 -0.27 55.82 -0.27 L 55.82 -0.27 L 55.82 -2.7 L 55.82 -2.7 Q 54.34 -2.7 53.75 -2.62 L 53.75 -2.62 L 53.75 -3.48 L 53.75 -3.48 Q 54.69 -3.44 55.82 -3.44 L 55.82 -3.44 L 55.82 -3.44 Q 55.82 -4.49 55.74 -5.16 Z M 61.84 -6.6 L 61.84 -7.46 L 61.84 -7.46 Q 61.84 -7.46 61.88 -7.46 L 61.88 -7.46 L 61.88 -7.46 Q 62.11 -7.42 63.05 -7.42 L 63.05 -7.42 L 67.03 -7.42 L 67.03 -7.42 Q 67.85 -7.42 68.52 -7.5 L 68.52 -7.5 L 68.52 -6.6 L 68.52 -6.6 Q 68.55 -6.68 67.07 -6.68 L 67.07 -6.68 L 65.59 -6.68 L 65.59 -4.38 L 67.93 -4.38 L 67.93 -4.38 Q 68.59 -4.38 69.38 -4.45 L 69.38 -4.45 L 69.38 -3.55 L 69.38 -3.55 Q 68.71 -3.63 67.97 -3.63 L 67.97 -3.63 L 65.59 -3.63 L 65.59 -0.35 L 65.59 -0.35 Q 65.63 0.23 65.27 0.39 L 65.27 0.39 L 65.27 0.39 Q 65.04 0.55 63.71 0.66 L 63.71 0.66 L 63.71 0.66 Q 63.63 0.12 63.32 -0.31 L 63.32 -0.31 L 63.32 -0.31 Q 64.88 -0.08 64.73 -0.55 L 64.73 -0.55 L 64.73 -3.63 L 62.15 -3.63 L 62.15 -3.63 Q 61.48 -3.63 60.78 -3.55 L 60.78 -3.55 L 60.78 -4.45 L 60.78 -4.45 Q 61.37 -4.38 62.34 -4.38 L 62.34 -4.38 L 64.73 -4.38 L 64.73 -6.68 L 63.01 -6.68 L 63.01 -6.68 Q 62.03 -6.68 61.84 -6.6 L 61.84 -6.6 Z M 76.48 -8.09 L 76.48 -8.09 L 76.48 -8.09 Q 77.27 -8.01 77.46 -7.93 L 77.46 -7.93 L 77.46 -7.93 Q 77.46 -7.93 77.42 -7.85 L 77.42 -7.85 L 77.42 -7.85 Q 77.3 -7.7 77.23 -7.54 L 77.23 -7.54 L 77.23 -7.54 Q 77.19 -7.38 77.15 -7.11 L 77.15 -7.11 L 77.15 -7.11 Q 77.11 -7.03 77.11 -6.95 L 77.11 -6.95 L 77.97 -6.95 L 77.97 -6.95 Q 78.75 -6.95 79.18 -7.03 L 79.18 -7.03 L 79.18 -6.25 L 79.18 -6.25 Q 78.83 -6.33 78.01 -6.33 L 78.01 -6.33 L 76.99 -6.33 L 76.99 -6.33 Q 77.81 -5.94 79.14 -5.12 L 79.14 -5.12 L 78.44 -4.49 L 78.44 -4.49 Q 77.77 -5.16 76.68 -5.74 L 76.68 -5.74 L 76.68 -5.74 Q 76.13 -4.92 75.08 -4.41 L 75.08 -4.41 L 75.08 -4.41 Q 74.77 -4.8 74.45 -5.04 L 74.45 -5.04 L 74.45 -5.04 Q 75.66 -5.27 76.33 -6.33 L 76.33 -6.33 L 75.74 -6.33 L 75.74 -6.33 Q 74.96 -6.29 74.57 -6.25 L 74.57 -6.25 L 74.57 -7.03 L 74.57 -7.03 Q 74.96 -6.99 75.74 -6.95 L 75.74 -6.95 L 76.45 -6.95 L 76.45 -6.95 Q 76.56 -7.42 76.48 -8.09 Z M 71.99 -7.97 L 71.99 -7.97 L 71.99 -7.97 Q 72.73 -7.97 72.97 -7.85 L 72.97 -7.85 L 72.97 -7.85 Q 72.97 -7.81 72.93 -7.77 L 72.93 -7.77 L 72.93 -7.77 Q 72.73 -7.58 72.73 -7.15 L 72.73 -7.15 L 72.73 -1.33 L 73.36 -1.41 L 73.36 -5.82 L 73.36 -5.82 Q 73.36 -6.05 73.36 -6.37 L 73.36 -6.37 L 73.36 -6.37 Q 74.1 -6.33 74.22 -6.21 L 74.22 -6.21 L 74.22 -6.21 Q 74.22 -6.21 74.22 -6.17 L 74.22 -6.17 L 74.22 -6.17 Q 74.06 -5.9 74.06 -5.43 L 74.06 -5.43 L 74.06 -1.29 L 74.06 -1.29 Q 74.1 -0.27 74.14 -0.08 L 74.14 -0.08 L 73.32 -0.08 L 73.32 -0.08 Q 73.32 -0.12 73.32 -0.35 L 73.32 -0.35 L 73.32 -0.35 Q 73.36 -0.66 73.36 -0.74 L 73.36 -0.74 L 71.48 -0.55 L 71.48 -0.55 Q 70.78 -0.47 70.63 -0.43 L 70.63 -0.43 L 70.63 -0.43 Q 70.7 -0.74 70.7 -1.09 L 70.7 -1.09 L 70.7 -5.63 L 70.7 -5.63 Q 70.7 -5.98 70.63 -6.25 L 70.63 -6.25 L 70.63 -6.25 Q 70.63 -6.33 70.63 -6.37 L 70.63 -6.37 L 70.63 -6.37 Q 71.56 -6.37 71.52 -6.29 L 71.52 -6.29 L 71.52 -6.29 Q 71.52 -6.25 71.48 -6.21 L 71.48 -6.21 L 71.48 -6.21 Q 71.41 -5.98 71.41 -5.74 L 71.41 -5.74 L 71.41 -1.17 L 72.07 -1.25 L 72.07 -7.46 L 72.07 -7.46 Q 72.07 -7.81 71.99 -7.97 Z M 74.73 -3.01 L 74.73 -3.01 L 74.73 -3.01 Q 74.8 -3.01 75.31 -2.97 L 75.31 -2.97 L 75.31 -2.97 Q 75.63 -2.97 75.66 -2.97 L 75.66 -2.97 L 76.33 -2.97 L 76.33 -2.97 Q 76.56 -2.97 76.95 -3.01 L 76.95 -3.01 L 76.95 -3.01 Q 77.11 -3.01 77.19 -3.01 L 77.19 -3.01 L 77.19 -3.01 Q 77.15 -2.85 77.15 -2.3 L 77.15 -2.3 L 77.15 -1.37 L 77.15 -1.37 Q 77.15 -0.78 77.19 -0.63 L 77.19 -0.63 L 77.19 -0.63 Q 77.15 -0.63 76.91 -0.63 L 76.91 -0.63 L 76.91 -0.63 Q 76.48 -0.66 76.41 -0.66 L 76.41 -0.66 L 75.47 -0.66 L 75.47 -0.66 Q 75.47 -0.2 75.51 -0.12 L 75.51 -0.12 L 74.73 -0.12 L 74.73 -0.12 Q 74.77 -0.39 74.8 -1.02 L 74.8 -1.02 L 74.8 -2.27 L 74.8 -2.27 Q 74.8 -2.7 74.73 -3.01 Z M 76.48 -2.34 L 75.47 -2.34 L 75.47 -1.29 L 76.48 -1.29 L 76.48 -2.34 Z M 75.35 -4.38 L 78.67 -4.38 L 78.67 -4.38 Q 79.22 -4.38 79.57 -4.45 L 79.57 -4.45 L 79.57 -3.59 L 79.57 -3.59 Q 79.3 -3.67 78.67 -3.67 L 78.67 -3.67 L 78.67 -0.23 L 78.67 -0.23 Q 78.67 -0.2 78.67 -0.08 L 78.67 -0.08 L 78.67 -0.08 Q 78.98 0.7 77.11 0.98 L 77.11 0.98 L 77.11 0.98 Q 77.15 0.55 76.76 0 L 76.76 0 L 76.76 0 Q 77.66 0.12 77.85 -0.04 L 77.85 -0.04 L 77.85 -0.04 Q 77.85 -0.04 77.85 -0.08 L 77.85 -0.08 L 77.85 -0.08 Q 77.97 -0.23 77.97 -0.82 L 77.97 -0.82 L 77.97 -3.67 L 75.35 -3.67 L 75.35 -3.67 Q 74.69 -3.67 74.26 -3.59 L 74.26 -3.59 L 74.26 -4.45 L 74.26 -4.45 Q 74.61 -4.38 75.35 -4.38 L 75.35 -4.38 Z M 81.99 -7.73 L 81.99 -7.73 L 81.99 -7.73 Q 82.89 -7.73 82.93 -7.62 L 82.93 -7.62 L 82.93 -7.62 Q 82.93 -7.62 82.89 -7.54 L 82.89 -7.54 L 82.89 -7.54 Q 82.77 -7.34 82.77 -7.07 L 82.77 -7.07 L 82.77 -1.13 L 83.52 -1.29 L 83.52 -5.23 L 83.52 -5.23 Q 83.52 -5.59 83.48 -5.82 L 83.48 -5.82 L 83.48 -5.82 Q 83.48 -5.86 83.48 -5.9 L 83.48 -5.9 L 83.48 -5.9 Q 84.26 -5.9 84.38 -5.78 L 84.38 -5.78 L 84.38 -5.78 Q 84.38 -5.78 84.34 -5.74 L 84.34 -5.74 L 84.34 -5.74 Q 84.22 -5.55 84.22 -5.31 L 84.22 -5.31 L 84.22 -0.86 L 84.22 -0.86 Q 84.26 0 84.3 0.2 L 84.3 0.2 L 83.48 0.2 L 83.48 0.2 Q 83.48 0.16 83.48 -0.04 L 83.48 -0.04 L 83.48 -0.04 Q 83.52 -0.47 83.52 -0.66 L 83.52 -0.66 L 81.64 -0.35 L 81.64 -0.35 Q 81.02 -0.23 80.59 -0.12 L 80.59 -0.12 L 80.59 -0.12 Q 80.66 -0.59 80.66 -0.98 L 80.66 -0.98 L 80.66 -5.43 L 80.66 -5.43 Q 80.66 -5.9 80.59 -6.05 L 80.59 -6.05 L 80.59 -6.05 Q 81.56 -6.05 81.52 -5.98 L 81.52 -5.98 L 81.52 -5.98 Q 81.52 -5.98 81.52 -5.94 L 81.52 -5.94 L 81.52 -5.94 Q 81.33 -5.74 81.33 -5.31 L 81.33 -5.31 L 81.33 -0.9 L 82.03 -1.02 L 82.03 -6.84 L 82.03 -6.84 Q 82.03 -7.38 81.99 -7.73 Z M 89.41 -7.34 L 89.41 -7.34 L 89.41 -6.52 L 89.41 -6.52 Q 89.1 -6.56 88.16 -6.6 L 88.16 -6.6 L 85.63 -6.6 L 85.63 -0.08 L 87.85 -0.08 L 87.85 -0.08 Q 88.95 -0.08 89.34 -0.2 L 89.34 -0.2 L 89.34 0.59 L 89.34 0.59 Q 88.87 0.51 87.85 0.51 L 87.85 0.51 L 85.94 0.51 L 85.94 0.51 Q 85.74 0.51 85.2 0.55 L 85.2 0.55 L 85.2 0.55 Q 84.88 0.55 84.8 0.55 L 84.8 0.55 L 84.8 0.55 Q 84.88 0.27 84.88 -0.31 L 84.88 -0.31 L 84.88 -6.17 L 84.88 -6.17 Q 84.88 -7.03 84.84 -7.3 L 84.84 -7.3 L 84.84 -7.3 Q 85.12 -7.27 86.17 -7.27 L 86.17 -7.27 L 88.16 -7.27 L 88.16 -7.27 Q 89.06 -7.3 89.41 -7.34 Z M 88.09 -6.05 L 88.09 -6.05 L 88.09 -6.05 Q 88.63 -5.9 89.06 -5.63 L 89.06 -5.63 L 89.06 -5.63 Q 89.06 -5.63 89.02 -5.59 L 89.02 -5.59 L 89.02 -5.59 Q 88.87 -5.51 88.71 -5.23 L 88.71 -5.23 L 88.71 -5.23 Q 88.71 -5.2 88.67 -5.12 L 88.67 -5.12 L 88.67 -5.12 Q 88.36 -4.34 87.93 -3.32 L 87.93 -3.32 L 87.93 -3.32 Q 88.67 -2.03 89.14 -1.09 L 89.14 -1.09 L 88.4 -0.7 L 88.4 -0.7 Q 88.24 -1.29 87.7 -2.42 L 87.7 -2.42 L 87.7 -2.42 Q 87.66 -2.62 87.62 -2.66 L 87.62 -2.66 L 87.62 -2.66 Q 87.62 -2.62 87.58 -2.58 L 87.58 -2.58 L 87.58 -2.58 Q 86.95 -1.21 86.52 -0.66 L 86.52 -0.66 L 86.52 -0.66 Q 86.48 -0.66 86.45 -0.7 L 86.45 -0.7 L 86.45 -0.7 Q 85.94 -0.98 85.74 -1.02 L 85.74 -1.02 L 85.74 -1.02 Q 86.6 -1.88 87.27 -3.32 L 87.27 -3.32 L 87.27 -3.32 Q 86.64 -4.38 85.9 -5.35 L 85.9 -5.35 L 86.56 -5.82 L 86.56 -5.82 Q 86.72 -5.51 86.99 -5.08 L 86.99 -5.08 L 86.99 -5.08 Q 87.34 -4.45 87.54 -4.02 L 87.54 -4.02 L 87.54 -4.02 Q 87.97 -5.16 88.09 -6.05 Z M 93.79 -8.05 L 93.79 -8.05 L 93.79 -8.05 Q 94.8 -7.85 94.96 -7.66 L 94.96 -7.66 L 94.96 -7.66 Q 94.96 -7.62 94.77 -7.46 L 94.77 -7.46 L 94.77 -7.46 Q 94.38 -7.15 94.1 -6.8 L 94.1 -6.8 L 97.11 -6.8 L 97.11 -6.8 Q 97.93 -6.8 98.67 -6.91 L 98.67 -6.91 L 98.67 -6.91 Q 97.5 -4.96 95.2 -3.87 L 95.2 -3.87 L 95.2 -3.87 Q 95.98 -3.71 96.09 -3.63 L 96.09 -3.63 L 96.09 -3.63 Q 96.09 -3.59 95.98 -3.52 L 95.98 -3.52 L 95.98 -3.52 Q 95.7 -3.36 95.51 -3.16 L 95.51 -3.16 L 97.93 -3.16 L 97.93 -3.16 Q 98.55 -3.16 99.1 -3.24 L 99.1 -3.24 L 99.1 -3.24 Q 97.93 0.9 91.45 0.94 L 91.45 0.94 L 91.45 0.94 Q 91.37 0.39 90.94 0 L 90.94 0 L 90.94 0 Q 93.2 0.23 95.63 -0.51 L 95.63 -0.51 L 95.63 -0.51 Q 95.16 -1.09 94.45 -1.6 L 94.45 -1.6 L 95.2 -2.11 L 95.2 -2.11 Q 96.02 -1.37 96.41 -0.86 L 96.41 -0.86 L 96.41 -0.86 Q 97.38 -1.6 97.77 -2.5 L 97.77 -2.5 L 94.84 -2.5 L 94.84 -2.5 Q 93.75 -1.52 92.3 -0.66 L 92.3 -0.66 L 92.3 -0.66 Q 92.03 -1.09 91.48 -1.37 L 91.48 -1.37 L 91.48 -1.37 Q 93.59 -2.15 94.96 -3.75 L 94.96 -3.75 L 94.96 -3.75 Q 93.52 -3.13 91.68 -2.62 L 91.68 -2.62 L 91.68 -2.62 Q 91.45 -3.05 90.98 -3.48 L 90.98 -3.48 L 90.98 -3.48 Q 92.15 -3.52 94.3 -4.26 L 94.3 -4.26 L 94.3 -4.26 Q 94.41 -4.3 94.49 -4.34 L 94.49 -4.34 L 94.49 -4.34 Q 93.98 -4.96 93.44 -5.31 L 93.44 -5.31 L 94.14 -5.78 L 94.14 -5.78 Q 94.84 -5.2 95.2 -4.65 L 95.2 -4.65 L 95.2 -4.65 Q 96.45 -5.39 97.07 -6.13 L 97.07 -6.13 L 93.59 -6.13 L 93.59 -6.13 Q 92.66 -5.04 91.91 -4.49 L 91.91 -4.49 L 91.91 -4.49 Q 91.48 -4.88 91.05 -5 L 91.05 -5 L 91.05 -5 Q 92.89 -5.98 93.79 -8.05 Z M 104.34 -8.01 L 104.34 -8.01 L 104.34 -8.01 Q 105.51 -7.93 105.59 -7.81 L 105.59 -7.81 L 105.59 -7.81 Q 105.59 -7.77 105.55 -7.73 L 105.55 -7.73 L 105.55 -7.73 Q 105.27 -7.34 105.27 -6.56 L 105.27 -6.56 L 105.27 -2.73 L 105.27 -2.73 Q 105.27 -2.07 105.35 -1.72 L 105.35 -1.72 L 104.34 -1.72 L 104.34 -1.72 Q 104.34 -1.72 104.34 -1.76 L 104.34 -1.76 L 104.34 -1.76 Q 104.41 -2.23 104.41 -2.73 L 104.41 -2.73 L 104.41 -6.72 L 104.41 -6.72 Q 104.41 -7.81 104.34 -8.01 Z M 106.21 -6.17 L 106.91 -6.72 L 106.91 -6.72 Q 108.05 -5.7 109.41 -4.06 L 109.41 -4.06 L 108.59 -3.36 L 108.59 -3.36 Q 107.5 -5.08 106.21 -6.17 L 106.21 -6.17 Z M 102.42 -6.41 L 102.42 -6.41 L 102.42 -6.41 Q 103.48 -6.13 103.52 -6.02 L 103.52 -6.02 L 103.52 -6.02 Q 103.52 -5.98 103.44 -5.94 L 103.44 -5.94 L 103.44 -5.94 Q 103.2 -5.7 103.09 -5.47 L 103.09 -5.47 L 103.09 -5.47 Q 102.27 -3.59 101.64 -2.54 L 101.64 -2.54 L 101.64 -2.54 Q 101.37 -2.73 100.7 -2.89 L 100.7 -2.89 L 100.7 -2.89 Q 101.91 -4.26 102.42 -6.41 Z M 107.03 -3.79 L 107.03 -3.79 L 107.03 -3.79 Q 108.01 -3.44 108.13 -3.24 L 108.13 -3.24 L 108.13 -3.24 Q 108.13 -3.2 108.01 -3.16 L 108.01 -3.16 L 108.01 -3.16 Q 107.77 -3.01 107.7 -2.85 L 107.7 -2.85 L 107.7 -2.85 Q 106.88 0 101.33 0.9 L 101.33 0.9 L 101.33 0.9 Q 101.17 0.39 100.55 0 L 100.55 0 L 100.55 0 Q 106.41 -0.2 107.03 -3.79 Z M 111.76 -1.6 L 113.24 -1.6 L 113.24 -0.04 L 113.24 -0.04 Q 113.13 1.29 111.88 1.33 L 111.88 1.33 L 111.88 0.7 L 111.88 0.7 Q 112.38 0.59 112.38 -0.08 L 112.38 -0.08 L 111.76 -0.08 L 111.76 -1.6 Z M 123.32 -7.34 L 123.32 -7.34 L 126.76 -7.34 L 126.76 -7.34 Q 127.34 -7.34 127.89 -7.38 L 127.89 -7.38 L 127.89 -7.38 Q 128.01 -7.38 128.01 -7.38 L 128.01 -7.38 L 128.01 -7.38 Q 127.93 -6.91 127.93 -6.29 L 127.93 -6.29 L 127.93 -3.95 L 127.93 -3.95 Q 127.93 -2.97 128.01 -2.73 L 128.01 -2.73 L 128.01 -2.73 Q 127.5 -2.81 126.72 -2.81 L 126.72 -2.81 L 123.67 -2.81 L 123.67 -2.81 Q 122.34 -2.81 122.07 -2.73 L 122.07 -2.73 L 122.07 -2.73 Q 122.15 -3.28 122.15 -4.1 L 122.15 -4.1 L 122.15 -6.41 L 122.15 -6.41 Q 122.15 -7.27 122.07 -7.38 L 122.07 -7.38 L 122.07 -7.38 Q 122.07 -7.38 122.15 -7.38 L 122.15 -7.38 L 122.15 -7.38 Q 122.7 -7.34 123.32 -7.34 Z M 127.11 -6.56 L 122.97 -6.56 L 122.97 -3.55 L 127.11 -3.55 L 127.11 -6.56 Z M 123.4 -2.27 L 123.4 -2.27 L 123.4 -2.27 Q 123.55 -2.19 123.83 -2.07 L 123.83 -2.07 L 123.83 -2.07 Q 124.49 -1.76 124.45 -1.68 L 124.45 -1.68 L 124.45 -1.68 Q 124.45 -1.6 124.3 -1.56 L 124.3 -1.56 L 124.3 -1.56 Q 124.06 -1.48 123.91 -1.33 L 123.91 -1.33 L 123.91 -1.33 Q 123.71 -1.13 123.36 -0.82 L 123.36 -0.82 L 123.36 -0.82 Q 122.3 0.12 121.33 0.9 L 121.33 0.9 L 121.33 0.9 Q 121.05 0.59 120.63 0.27 L 120.63 0.27 L 120.63 0.27 Q 120.51 0.2 120.51 0.2 L 120.51 0.2 L 120.51 0.2 Q 122.19 -0.47 123.4 -2.27 Z M 125.86 -1.68 L 126.52 -2.19 L 126.52 -2.19 Q 127.11 -1.76 129.06 -0.12 L 129.06 -0.12 L 129.06 -0.12 Q 129.34 0.08 129.45 0.2 L 129.45 0.2 L 129.45 0.2 Q 129.06 0.39 128.63 0.82 L 128.63 0.82 L 128.63 0.82 Q 127.73 -0.31 125.86 -1.68 L 125.86 -1.68 Z M 134.45 -8.13 L 134.45 -8.13 L 134.45 -8.13 Q 134.57 -8.09 134.73 -8.05 L 134.73 -8.05 L 134.73 -8.05 Q 135.55 -7.93 135.51 -7.81 L 135.51 -7.81 L 135.51 -7.81 Q 135.51 -7.77 135.43 -7.7 L 135.43 -7.7 L 135.43 -7.7 Q 135.16 -7.38 134.77 -6.56 L 134.77 -6.56 L 137.42 -6.56 L 137.42 -6.56 Q 138.98 -6.56 139.45 -6.64 L 139.45 -6.64 L 139.45 -5.74 L 139.45 -5.74 Q 139.1 -5.78 137.42 -5.82 L 137.42 -5.82 L 134.45 -5.82 L 134.45 -5.82 Q 134.02 -5.08 133.2 -3.95 L 133.2 -3.95 L 133.2 -3.95 Q 133.09 -3.79 133.05 -3.71 L 133.05 -3.71 L 133.05 -0.12 L 133.05 -0.12 Q 133.09 1.02 133.09 0.98 L 133.09 0.98 L 132.15 0.98 L 132.15 0.98 Q 132.23 0.55 132.23 -0.2 L 132.23 -0.2 L 132.23 -2.85 L 132.23 -2.85 Q 131.33 -1.95 130.9 -1.64 L 130.9 -1.64 L 130.9 -1.64 Q 130.51 -2.07 130.16 -2.27 L 130.16 -2.27 L 130.16 -2.27 Q 131.25 -2.93 132.23 -3.87 L 132.23 -3.87 L 132.19 -4.53 L 132.19 -4.53 Q 132.46 -4.53 132.73 -4.49 L 132.73 -4.49 L 132.73 -4.49 Q 133.13 -4.92 133.59 -5.82 L 133.59 -5.82 L 132.73 -5.82 L 132.73 -5.82 Q 132.3 -5.82 131.56 -5.78 L 131.56 -5.78 L 131.56 -5.78 Q 131.05 -5.78 130.86 -5.78 L 130.86 -5.78 L 130.86 -6.68 L 130.86 -6.68 Q 131.76 -6.6 132.73 -6.6 L 132.73 -6.6 L 133.95 -6.6 L 133.95 -6.6 Q 134.3 -7.3 134.45 -8.13 Z M 135.74 -5.16 L 135.74 -5.16 L 135.74 -5.16 Q 136.6 -5.2 136.72 -5.08 L 136.72 -5.08 L 136.72 -5.08 Q 136.72 -5 136.68 -4.84 L 136.68 -4.84 L 136.68 -4.84 Q 136.6 -4.65 136.6 -4.38 L 136.6 -4.38 L 136.6 -3.44 L 137.42 -3.44 L 137.42 -3.44 Q 137.89 -3.44 138.98 -3.48 L 138.98 -3.48 L 138.98 -2.62 L 138.98 -2.62 Q 138.98 -2.62 138.83 -2.62 L 138.83 -2.62 L 138.83 -2.62 Q 137.73 -2.7 137.42 -2.7 L 137.42 -2.7 L 136.6 -2.7 L 136.6 -0.27 L 137.58 -0.27 L 137.58 -0.27 Q 138.98 -0.31 139.34 -0.35 L 139.34 -0.35 L 139.34 0.43 L 139.34 0.43 Q 139.22 0.43 138.79 0.43 L 138.79 0.43 L 138.79 0.43 Q 138.01 0.39 137.58 0.39 L 137.58 0.39 L 134.65 0.39 L 134.65 0.39 Q 133.91 0.39 133.28 0.47 L 133.28 0.47 L 133.28 -0.35 L 133.28 -0.35 Q 133.55 -0.31 134.61 -0.31 L 134.61 -0.31 L 134.61 -0.31 Q 135.35 -0.27 135.82 -0.27 L 135.82 -0.27 L 135.82 -2.7 L 135.82 -2.7 Q 134.34 -2.7 133.75 -2.62 L 133.75 -2.62 L 133.75 -3.48 L 133.75 -3.48 Q 134.69 -3.44 135.82 -3.44 L 135.82 -3.44 L 135.82 -3.44 Q 135.82 -4.49 135.74 -5.16 Z M 141.84 -6.6 L 141.84 -7.46 L 141.84 -7.46 Q 141.84 -7.46 141.88 -7.46 L 141.88 -7.46 L 141.88 -7.46 Q 142.11 -7.42 143.05 -7.42 L 143.05 -7.42 L 147.03 -7.42 L 147.03 -7.42 Q 147.85 -7.42 148.52 -7.5 L 148.52 -7.5 L 148.52 -6.6 L 148.52 -6.6 Q 148.55 -6.68 147.07 -6.68 L 147.07 -6.68 L 145.59 -6.68 L 145.59 -4.38 L 147.93 -4.38 L 147.93 -4.38 Q 148.59 -4.38 149.38 -4.45 L 149.38 -4.45 L 149.38 -3.55 L 149.38 -3.55 Q 148.71 -3.63 147.97 -3.63 L 147.97 -3.63 L 145.59 -3.63 L 145.59 -0.35 L 145.59 -0.35 Q 145.63 0.23 145.27 0.39 L 145.27 0.39 L 145.27 0.39 Q 145.04 0.55 143.71 0.66 L 143.71 0.66 L 143.71 0.66 Q 143.63 0.12 143.32 -0.31 L 143.32 -0.31 L 143.32 -0.31 Q 144.88 -0.08 144.73 -0.55 L 144.73 -0.55 L 144.73 -3.63 L 142.15 -3.63 L 142.15 -3.63 Q 141.48 -3.63 140.78 -3.55 L 140.78 -3.55 L 140.78 -4.45 L 140.78 -4.45 Q 141.37 -4.38 142.34 -4.38 L 142.34 -4.38 L 144.73 -4.38 L 144.73 -6.68 L 143.01 -6.68 L 143.01 -6.68 Q 142.03 -6.68 141.84 -6.6 L 141.84 -6.6 Z M 154.57 -8.13 L 154.57 -8.13 L 154.57 -8.13 Q 154.69 -8.09 154.96 -8.01 L 154.96 -8.01 L 154.96 -8.01 Q 155.63 -7.81 155.59 -7.77 L 155.59 -7.77 L 155.59 -7.77 Q 155.59 -7.73 155.51 -7.62 L 155.51 -7.62 L 155.51 -7.62 Q 155.16 -7.15 154.69 -6.17 L 154.69 -6.17 L 158.4 -6.17 L 158.4 -6.17 Q 158.91 -6.17 159.41 -6.21 L 159.41 -6.21 L 159.41 -5.39 L 159.41 -5.39 Q 158.83 -5.47 158.4 -5.47 L 158.4 -5.47 L 157.11 -5.47 L 157.11 -4.38 L 158.28 -4.38 L 158.28 -4.38 Q 158.87 -4.38 159.02 -4.45 L 159.02 -4.45 L 159.02 -4.45 Q 159.06 -4.45 159.06 -4.45 L 159.06 -4.45 L 159.06 -3.67 L 159.06 -3.67 Q 159.02 -3.75 158.28 -3.75 L 158.28 -3.75 L 157.11 -3.75 L 157.11 -2.54 L 157.97 -2.54 L 157.97 -2.54 Q 158.79 -2.54 159.02 -2.62 L 159.02 -2.62 L 159.02 -1.84 L 159.02 -1.84 Q 158.75 -1.88 158.05 -1.88 L 158.05 -1.88 L 157.11 -1.88 L 157.11 -0.55 L 158.32 -0.55 L 158.32 -0.55 Q 159.18 -0.55 159.49 -0.63 L 159.49 -0.63 L 159.49 0.2 L 159.49 0.2 Q 159.1 0.12 158.28 0.12 L 158.28 0.12 L 154.77 0.12 L 154.77 0.12 Q 154.77 0.59 154.8 0.9 L 154.8 0.9 L 154.8 0.9 Q 154.84 1.02 154.8 1.02 L 154.8 1.02 L 154.02 1.02 L 154.02 1.02 Q 154.02 1.02 154.02 0.98 L 154.02 0.98 L 154.02 0.98 Q 154.06 0.7 154.06 0.08 L 154.06 0.08 L 154.06 -5 L 154.06 -5 Q 153.67 -4.26 153.24 -3.55 L 153.24 -3.55 L 153.24 -3.55 Q 153.01 -3.83 152.46 -4.06 L 152.46 -4.06 L 152.46 -4.06 Q 153.95 -5.74 154.57 -8.13 Z M 156.09 -7.58 L 156.8 -7.97 L 156.8 -7.97 Q 157.46 -7.3 157.73 -6.91 L 157.73 -6.91 L 156.88 -6.48 L 156.88 -6.48 Q 156.64 -7.07 156.09 -7.58 L 156.09 -7.58 Z M 150.9 -7.38 L 151.76 -7.85 L 151.76 -7.85 Q 152.15 -7.42 152.85 -6.33 L 152.85 -6.33 L 151.91 -5.86 L 151.91 -5.86 Q 151.48 -6.8 150.9 -7.38 L 150.9 -7.38 Z M 156.37 -5.47 L 154.84 -5.47 L 154.84 -4.38 L 156.37 -4.38 L 156.37 -5.47 Z M 152.38 -5.16 L 152.38 -5.16 L 152.38 -5.16 Q 152.38 -5.12 152.38 -4.92 L 152.38 -4.92 L 152.38 -4.92 Q 152.3 -4.34 152.3 -3.71 L 152.3 -3.71 L 152.3 -0.98 L 153.13 -1.95 L 153.52 -1.17 L 153.52 -1.17 Q 152.11 0.12 151.88 0.43 L 151.88 0.43 L 151.33 -0.23 L 151.33 -0.23 Q 151.52 -0.63 151.52 -0.94 L 151.52 -0.94 L 151.52 -4.3 L 150.98 -4.3 L 150.98 -4.3 Q 150.51 -4.3 150.31 -4.22 L 150.31 -4.22 L 150.31 -5.12 L 150.31 -5.12 Q 150.51 -5.08 151.25 -5.08 L 151.25 -5.08 L 151.68 -5.08 L 151.68 -5.08 Q 151.99 -5.08 152.27 -5.16 L 152.27 -5.16 L 152.27 -5.16 Q 152.38 -5.16 152.38 -5.16 Z M 156.37 -3.75 L 154.84 -3.75 L 154.84 -2.54 L 156.37 -2.54 L 156.37 -3.75 Z M 156.37 -1.88 L 154.84 -1.88 L 154.84 -0.55 L 156.37 -0.55 L 156.37 -1.88 Z M 165.55 -8.05 L 165.55 -8.05 L 165.55 -8.05 Q 166.56 -7.97 166.56 -7.81 L 166.56 -7.81 L 166.56 -7.81 Q 166.56 -7.73 166.48 -7.7 L 166.48 -7.7 L 166.48 -7.7 Q 166.37 -7.54 166.37 -7.27 L 166.37 -7.27 L 166.37 -6.21 L 166.37 -6.21 Q 167.15 -6.56 168.24 -7.38 L 168.24 -7.38 L 168.24 -7.38 Q 168.95 -6.76 168.91 -6.6 L 168.91 -6.6 L 168.91 -6.6 Q 168.87 -6.56 168.63 -6.52 L 168.63 -6.52 L 168.63 -6.52 Q 168.36 -6.45 168.13 -6.37 L 168.13 -6.37 L 168.13 -6.37 Q 167.81 -6.25 167.38 -6.05 L 167.38 -6.05 L 167.38 -6.05 Q 166.84 -5.82 166.37 -5.63 L 166.37 -5.63 L 166.37 -4.92 L 166.37 -4.92 Q 166.37 -4.8 166.99 -4.77 L 166.99 -4.77 L 166.99 -4.77 Q 167.81 -4.73 168.09 -4.84 L 168.09 -4.84 L 168.09 -4.84 Q 168.36 -4.96 168.36 -5.82 L 168.36 -5.82 L 168.36 -5.82 Q 168.87 -5.43 169.3 -5.27 L 169.3 -5.27 L 169.3 -5.27 Q 169.02 -4.18 168.4 -4.06 L 168.4 -4.06 L 168.4 -4.06 Q 167.46 -3.95 166.48 -4.06 L 166.48 -4.06 L 166.48 -4.06 Q 165.63 -4.18 165.63 -4.65 L 165.63 -4.65 L 165.63 -4.65 Q 165.66 -6.91 165.55 -7.93 L 165.55 -7.93 L 165.55 -7.93 Q 165.55 -8.01 165.55 -8.05 Z M 162.38 -7.97 L 162.38 -7.97 L 162.38 -7.97 Q 163.32 -7.66 163.32 -7.54 L 163.32 -7.54 L 163.32 -7.54 Q 163.28 -7.46 163.13 -7.3 L 163.13 -7.3 L 163.13 -7.3 Q 162.97 -7.19 162.89 -7.11 L 162.89 -7.11 L 162.89 -7.11 Q 162.81 -6.99 162.46 -6.56 L 162.46 -6.56 L 162.46 -6.56 Q 161.88 -5.74 161.68 -5.55 L 161.68 -5.55 L 163.98 -5.7 L 163.98 -5.7 Q 163.71 -6.13 163.24 -6.56 L 163.24 -6.56 L 163.95 -6.99 L 163.95 -6.99 Q 164.88 -5.98 165.31 -5.16 L 165.31 -5.16 L 164.45 -4.69 L 164.45 -4.69 Q 164.38 -4.92 164.26 -5.16 L 164.26 -5.16 L 164.26 -5.16 Q 162.38 -5.04 160.9 -4.69 L 160.9 -4.69 L 160.59 -5.59 L 160.59 -5.59 Q 161.02 -5.66 161.33 -6.09 L 161.33 -6.09 L 161.33 -6.09 Q 161.91 -6.84 162.38 -7.97 Z M 165.55 -3.79 L 165.55 -3.79 L 165.55 -3.79 Q 165.66 -3.79 165.86 -3.75 L 165.86 -3.75 L 165.86 -3.75 Q 166.56 -3.67 166.52 -3.59 L 166.52 -3.59 L 166.52 -3.59 Q 166.52 -3.55 166.45 -3.44 L 166.45 -3.44 L 166.45 -3.44 Q 166.37 -3.28 166.37 -3.16 L 166.37 -3.16 L 166.37 -1.95 L 166.37 -1.95 Q 167.77 -2.66 168.28 -3.13 L 168.28 -3.13 L 168.28 -3.13 Q 168.44 -2.93 168.63 -2.66 L 168.63 -2.66 L 168.63 -2.66 Q 168.95 -2.34 168.91 -2.3 L 168.91 -2.3 L 168.91 -2.3 Q 168.91 -2.27 168.75 -2.23 L 168.75 -2.23 L 168.75 -2.23 Q 168.52 -2.19 168.32 -2.11 L 168.32 -2.11 L 168.32 -2.11 Q 168.28 -2.07 166.52 -1.45 L 166.52 -1.45 L 166.52 -1.45 Q 166.41 -1.37 166.37 -1.37 L 166.37 -1.37 L 166.37 -0.35 L 166.37 -0.35 Q 166.41 0 167.03 -0.08 L 167.03 -0.08 L 167.03 -0.08 Q 168.09 -0.16 168.2 -0.23 L 168.2 -0.23 L 168.2 -0.23 Q 168.52 -0.43 168.48 -1.21 L 168.48 -1.21 L 168.48 -1.21 Q 168.95 -0.86 169.38 -0.7 L 169.38 -0.7 L 169.38 -0.7 Q 169.02 0.39 168.59 0.51 L 168.59 0.51 L 168.59 0.51 Q 168.4 0.59 167.62 0.63 L 167.62 0.63 L 167.62 0.63 Q 166.88 0.63 166.41 0.59 L 166.41 0.59 L 166.41 0.59 Q 165.66 0.51 165.63 0 L 165.63 0 L 165.63 -2.81 L 165.63 -2.81 Q 165.63 -3.44 165.55 -3.79 Z M 163.98 -2.81 L 163.98 -3.67 L 161.88 -3.67 L 161.88 -2.81 L 163.98 -2.81 Z M 163.98 -1.37 L 163.98 -2.27 L 161.88 -2.27 L 161.88 -1.37 L 163.98 -1.37 Z M 164.77 -4.38 L 164.77 -4.38 L 164.77 -4.38 Q 164.69 -3.95 164.69 -3.67 L 164.69 -3.67 L 164.69 0.23 L 164.69 0.23 Q 164.65 0.74 163.24 0.94 L 163.24 0.94 L 163.24 0.94 Q 163.24 0.35 162.89 -0.04 L 162.89 -0.04 L 162.89 -0.04 Q 163.79 0.12 163.98 -0.08 L 163.98 -0.08 L 163.98 -0.82 L 161.88 -0.82 L 161.88 -0.16 L 161.88 -0.16 Q 161.84 0.27 161.95 0.9 L 161.95 0.9 L 161.02 0.9 L 161.02 0.9 Q 161.09 0.16 161.09 -0.16 L 161.09 -0.16 L 161.09 -3.67 L 161.09 -3.67 Q 161.09 -4.06 161.02 -4.38 L 161.02 -4.38 L 161.02 -4.38 Q 161.64 -4.3 161.99 -4.3 L 161.99 -4.3 L 163.59 -4.3 L 163.59 -4.3 Q 163.95 -4.3 164.77 -4.38 Z M 171.8 -8.01 L 171.8 -8.01 L 171.8 -8.01 Q 172.3 -7.93 173.44 -7.93 L 173.44 -7.93 L 176.45 -7.93 L 176.45 -7.93 Q 177.85 -7.93 178.05 -8.01 L 178.05 -8.01 L 178.05 -8.01 Q 177.97 -7.62 177.97 -6.95 L 177.97 -6.95 L 177.97 -6.17 L 177.97 -6.17 Q 177.97 -5.43 178.05 -5.04 L 178.05 -5.04 L 178.05 -5.04 Q 177.73 -5.12 176.52 -5.12 L 176.52 -5.12 L 173.36 -5.12 L 173.36 -5.12 Q 172.54 -5.12 171.8 -5.04 L 171.8 -5.04 L 171.8 -5.04 Q 171.88 -5.27 171.88 -6.09 L 171.88 -6.09 L 171.88 -7.11 L 171.88 -7.11 Q 171.88 -7.66 171.8 -8.01 Z M 177.23 -7.38 L 172.62 -7.38 L 172.62 -6.72 L 177.23 -6.72 L 177.23 -7.38 Z M 177.23 -6.29 L 172.62 -6.29 L 172.62 -5.66 L 177.23 -5.66 L 177.23 -6.29 Z M 171.64 -4.57 L 171.64 -4.57 L 177.93 -4.57 L 177.93 -4.57 Q 178.79 -4.57 179.26 -4.65 L 179.26 -4.65 L 179.26 -3.91 L 179.26 -3.91 Q 179.02 -3.98 177.97 -3.98 L 177.97 -3.98 L 174.57 -3.98 L 174.57 -1.02 L 174.57 -1.02 Q 174.88 -1.05 175.31 -1.13 L 175.31 -1.13 L 175.27 -0.47 L 175.27 -0.47 Q 175.04 -0.47 174.57 -0.39 L 174.57 -0.39 L 174.57 -0.39 Q 174.57 0.31 174.65 0.78 L 174.65 0.78 L 174.65 0.78 Q 174.65 0.86 174.65 0.9 L 174.65 0.9 L 173.79 0.9 L 173.79 0.9 Q 173.87 0.47 173.87 -0.35 L 173.87 -0.35 L 173.87 -0.35 Q 171.45 -0.04 170.63 0.12 L 170.63 0.12 L 170.35 -0.74 L 170.35 -0.74 Q 170.7 -0.7 171.41 -0.7 L 171.41 -0.7 L 171.41 -3.98 L 171.41 -3.98 Q 170.94 -3.98 170.47 -3.91 L 170.47 -3.91 L 170.47 -4.69 L 170.47 -4.69 Q 170.86 -4.57 171.64 -4.57 Z M 173.87 -3.28 L 173.87 -3.98 L 172.07 -3.98 L 172.07 -3.28 L 173.87 -3.28 Z M 173.87 -2.85 L 172.07 -2.85 L 172.07 -2.07 L 173.87 -2.07 L 173.87 -2.85 Z M 173.87 -1.64 L 172.07 -1.64 L 172.07 -0.78 L 172.07 -0.78 Q 173.09 -0.86 173.87 -0.94 L 173.87 -0.94 L 173.87 -1.64 Z M 176.37 -0.7 L 176.37 -0.7 L 176.37 -0.7 Q 175.82 -1.29 175.2 -2.42 L 175.2 -2.42 L 175.66 -2.73 L 175.66 -2.73 Q 175.59 -2.73 175.35 -2.73 L 175.35 -2.73 L 175.35 -2.73 Q 175.12 -2.7 175.04 -2.7 L 175.04 -2.7 L 175.04 -3.44 L 175.04 -3.44 Q 175.39 -3.36 176.13 -3.36 L 176.13 -3.36 L 177.81 -3.36 L 177.81 -3.36 Q 178.13 -3.36 178.32 -3.4 L 178.32 -3.4 L 178.32 -3.4 Q 178.44 -3.4 178.52 -3.4 L 178.52 -3.4 L 178.52 -3.4 Q 178.01 -1.6 177.3 -0.78 L 177.3 -0.78 L 177.3 -0.78 Q 178.28 -0.23 179.38 -0.2 L 179.38 -0.2 L 179.38 -0.2 Q 178.95 0.16 178.71 0.66 L 178.71 0.66 L 178.71 0.66 Q 177.7 0.23 176.88 -0.27 L 176.88 -0.27 L 176.88 -0.27 Q 176.05 0.43 175.35 0.78 L 175.35 0.78 L 175.35 0.78 Q 175.16 0.35 174.65 0.08 L 174.65 0.08 L 174.65 0.08 Q 175.78 -0.12 176.37 -0.7 Z M 175.82 -2.73 L 175.82 -2.73 L 175.82 -2.73 Q 176.21 -1.84 176.8 -1.17 L 176.8 -1.17 L 176.8 -1.17 Q 177.3 -1.99 177.54 -2.77 L 177.54 -2.77 L 176.17 -2.77 L 176.17 -2.77 Q 176.05 -2.77 175.82 -2.73 Z M 185.82 -8.09 L 185.82 -8.09 L 185.82 -8.09 Q 186.37 -7.97 186.91 -7.66 L 186.91 -7.66 L 186.91 -7.66 Q 186.91 -7.62 186.84 -7.54 L 186.84 -7.54 L 186.84 -7.54 Q 186.52 -7.27 186.21 -6.64 L 186.21 -6.64 L 186.21 -6.64 Q 188.36 -6.68 189.02 -6.76 L 189.02 -6.76 L 189.02 -6.76 Q 188.48 -5.47 187.27 -4.06 L 187.27 -4.06 L 187.27 -4.06 Q 188.13 -3.4 189.69 -3.2 L 189.69 -3.2 L 189.69 -3.2 Q 189.34 -2.89 189.06 -2.27 L 189.06 -2.27 L 189.06 -2.27 Q 187.54 -2.85 186.76 -3.55 L 186.76 -3.55 L 186.76 -3.55 Q 185.74 -2.77 184.38 -2.19 L 184.38 -2.19 L 184.38 -2.19 Q 184.18 -2.66 183.87 -2.97 L 183.87 -2.97 L 183.87 -2.97 Q 185.27 -3.36 186.21 -4.1 L 186.21 -4.1 L 186.21 -4.1 Q 185.66 -4.77 185.47 -5.35 L 185.47 -5.35 L 185.47 -5.35 Q 184.96 -4.49 184.53 -3.95 L 184.53 -3.95 L 184.53 -3.95 Q 184.3 -4.26 183.79 -4.38 L 183.79 -4.38 L 183.79 -4.38 Q 185 -5.7 185.82 -8.09 Z M 187.73 -6.02 L 187.73 -6.02 L 187.73 -6.02 Q 187.15 -5.98 185.9 -5.98 L 185.9 -5.98 L 185.9 -5.98 Q 186.21 -5.08 186.76 -4.57 L 186.76 -4.57 L 186.76 -4.57 Q 187.19 -4.96 187.73 -6.02 Z M 185.51 -1.91 L 185.98 -2.62 L 185.98 -2.62 Q 186.72 -2.3 188.4 -1.48 L 188.4 -1.48 L 187.97 -0.7 L 187.97 -0.7 Q 186.76 -1.56 185.51 -1.91 L 185.51 -1.91 Z M 180.59 -0.66 L 184.02 -1.33 L 184.1 -0.55 L 180.9 0.2 L 180.59 -0.66 Z M 184.61 -0.55 L 185.16 -1.29 L 185.16 -1.29 Q 186.95 -0.51 188.4 0.35 L 188.4 0.35 L 187.73 1.13 L 187.73 1.13 Q 186.76 0.23 184.61 -0.55 L 184.61 -0.55 Z M 183.83 -3.09 L 183.79 -2.27 L 183.79 -2.27 Q 181.99 -2.03 181.02 -1.8 L 181.02 -1.8 L 181.02 -1.8 Q 180.86 -1.76 180.86 -1.76 L 180.86 -1.76 L 180.47 -2.66 L 180.47 -2.66 Q 180.47 -2.66 180.55 -2.7 L 180.55 -2.7 L 180.55 -2.7 Q 181.21 -2.89 182.3 -4.49 L 182.3 -4.49 L 182.3 -4.49 Q 181.41 -4.41 180.9 -4.26 L 180.9 -4.26 L 180.9 -4.26 Q 180.78 -4.22 180.78 -4.22 L 180.78 -4.22 L 180.51 -5.04 L 180.51 -5.04 Q 180.51 -5.04 180.59 -5.12 L 180.59 -5.12 L 180.59 -5.12 Q 181.91 -6.37 182.3 -7.97 L 182.3 -7.97 L 182.3 -7.97 Q 183.24 -7.66 183.36 -7.5 L 183.36 -7.5 L 183.36 -7.5 Q 183.36 -7.46 183.28 -7.38 L 183.28 -7.38 L 183.28 -7.38 Q 183.09 -7.3 182.97 -7.11 L 182.97 -7.11 L 182.97 -7.11 Q 182.89 -7.03 182.77 -6.84 L 182.77 -6.84 L 182.77 -6.84 Q 181.72 -5.35 181.37 -5.08 L 181.37 -5.08 L 182.73 -5.12 L 182.73 -5.12 Q 183.09 -5.63 183.44 -6.6 L 183.44 -6.6 L 183.44 -6.6 Q 184.22 -6.21 184.34 -5.94 L 184.34 -5.94 L 184.34 -5.94 Q 184.34 -5.9 184.22 -5.82 L 184.22 -5.82 L 184.22 -5.82 Q 184.06 -5.74 183.98 -5.63 L 183.98 -5.63 L 183.98 -5.63 Q 183.91 -5.55 183.63 -5.16 L 183.63 -5.16 L 183.63 -5.16 Q 182.27 -3.24 181.68 -2.66 L 181.68 -2.66 L 181.68 -2.66 Q 183.01 -2.89 183.83 -3.09 L 183.83 -3.09 Z M 195.7 -8.05 L 195.7 -8.05 L 195.7 -8.05 Q 196.68 -8.05 196.76 -7.93 L 196.76 -7.93 L 196.76 -7.93 Q 196.76 -7.89 196.68 -7.73 L 196.68 -7.73 L 196.68 -7.73 Q 196.56 -7.5 196.56 -7.34 L 196.56 -7.34 L 196.56 -7.34 Q 196.56 -6.48 196.52 -5.82 L 196.52 -5.82 L 197.77 -5.82 L 197.77 -5.82 Q 198.48 -5.82 199.02 -5.94 L 199.02 -5.94 L 199.02 -5.94 Q 199.06 -5.94 199.06 -5.94 L 199.06 -5.94 L 199.06 -5.08 L 199.06 -5.08 Q 199.02 -5.08 198.95 -5.08 L 198.95 -5.08 L 198.95 -5.08 Q 198.48 -5.16 197.77 -5.16 L 197.77 -5.16 L 196.52 -5.16 L 196.52 -5.16 Q 196.41 -2.3 193.91 -0.86 L 193.91 -0.86 L 193.91 -0.86 Q 193.52 -1.37 193.01 -1.56 L 193.01 -1.56 L 193.01 -1.56 Q 195.59 -2.38 195.74 -5.16 L 195.74 -5.16 L 194.69 -5.16 L 194.69 -5.16 Q 194.02 -5.16 193.44 -5.08 L 193.44 -5.08 L 193.44 -5.08 Q 193.36 -5.08 193.36 -5.08 L 193.36 -5.08 L 193.36 -5.9 L 193.36 -5.9 Q 193.4 -5.9 193.55 -5.9 L 193.55 -5.9 L 193.55 -5.9 Q 194.14 -5.82 194.69 -5.82 L 194.69 -5.82 L 195.74 -5.82 L 195.74 -7.54 L 195.74 -7.54 Q 195.74 -7.93 195.7 -8.05 Z M 191.13 -7.23 L 191.91 -7.66 L 191.91 -7.66 Q 191.99 -7.5 192.19 -7.23 L 192.19 -7.23 L 192.19 -7.23 Q 192.73 -6.45 192.97 -5.94 L 192.97 -5.94 L 192.19 -5.47 L 192.19 -5.47 Q 191.76 -6.45 191.13 -7.23 L 191.13 -7.23 Z M 192.66 -3.59 L 192.66 -3.59 L 192.66 -0.94 L 192.66 -0.94 Q 193.87 -0.2 195.16 -0.08 L 195.16 -0.08 L 195.16 -0.08 Q 196.45 0.04 199.49 -0.23 L 199.49 -0.23 L 199.1 0.74 L 199.1 0.74 Q 198.95 0.74 198.52 0.74 L 198.52 0.74 L 198.52 0.74 Q 195.08 0.78 193.98 0.39 L 193.98 0.39 L 193.98 0.39 Q 193.67 0.27 193.01 0 L 193.01 0 L 193.01 0 Q 192.46 -0.27 192.34 -0.27 L 192.34 -0.27 L 192.34 -0.27 Q 192.03 -0.31 191.37 0.63 L 191.37 0.63 L 191.37 0.63 Q 191.25 0.78 191.25 0.78 L 191.25 0.78 L 190.55 0.12 L 190.55 0.12 Q 190.86 -0.12 191.88 -0.9 L 191.88 -0.9 L 191.88 -3.79 L 191.6 -3.79 L 191.6 -3.79 Q 191.09 -3.79 190.66 -3.71 L 190.66 -3.71 L 190.66 -3.71 Q 190.55 -3.67 190.51 -3.67 L 190.51 -3.67 L 190.51 -4.61 L 190.51 -4.61 Q 190.55 -4.61 190.63 -4.61 L 190.63 -4.61 L 190.63 -4.61 Q 191.13 -4.53 191.64 -4.53 L 191.64 -4.53 L 191.76 -4.53 L 191.76 -4.53 Q 192.58 -4.53 192.73 -4.57 L 192.73 -4.57 L 192.73 -4.57 Q 192.66 -4.38 192.66 -3.59 Z M 196.41 -3.32 L 197.07 -3.79 L 197.07 -3.79 Q 197.66 -3.36 198.95 -1.6 L 198.95 -1.6 L 198.16 -0.98 L 198.16 -0.98 Q 197.5 -2.23 196.41 -3.32 L 196.41 -3.32 Z M 207.97 -7.89 L 207.97 -7.89 L 207.97 -7.89 Q 209.1 -7.89 209.1 -7.73 L 209.1 -7.73 L 209.1 -7.73 Q 209.1 -7.66 209.06 -7.54 L 209.06 -7.54 L 209.06 -7.54 Q 208.95 -7.27 208.95 -6.99 L 208.95 -6.99 L 208.95 -0.2 L 208.95 -0.2 Q 208.98 0.35 208.67 0.51 L 208.67 0.51 L 208.67 0.51 Q 208.44 0.66 207.15 0.82 L 207.15 0.82 L 207.15 0.82 Q 207.07 0.27 206.76 -0.12 L 206.76 -0.12 L 206.76 -0.12 Q 208.32 0 208.05 -0.66 L 208.05 -0.66 L 208.05 -6.48 L 208.05 -6.48 Q 208.05 -7.23 207.97 -7.77 L 207.97 -7.77 L 207.97 -7.77 Q 207.97 -7.89 207.97 -7.89 Z M 200.9 -6.52 L 200.9 -7.38 L 200.9 -7.38 Q 200.9 -7.38 200.98 -7.38 L 200.98 -7.38 L 200.98 -7.38 Q 201.52 -7.3 202.3 -7.3 L 202.3 -7.3 L 204.18 -7.3 L 204.18 -7.3 Q 205 -7.3 205.59 -7.38 L 205.59 -7.38 L 205.59 -7.38 Q 205.66 -7.38 205.7 -7.38 L 205.7 -7.38 L 205.7 -6.52 L 205.7 -6.52 Q 205.66 -6.52 205.55 -6.52 L 205.55 -6.52 L 205.55 -6.52 Q 204.92 -6.6 204.18 -6.6 L 204.18 -6.6 L 202.85 -6.6 L 202.85 -6.6 Q 203.55 -6.33 203.67 -6.13 L 203.67 -6.13 L 203.67 -6.13 Q 203.67 -6.09 203.52 -6.02 L 203.52 -6.02 L 203.52 -6.02 Q 203.36 -5.94 203.32 -5.9 L 203.32 -5.9 L 203.32 -5.9 Q 202.58 -5.08 201.84 -4.41 L 201.84 -4.41 L 204.65 -4.65 L 204.65 -4.65 Q 204.3 -5.27 203.95 -5.66 L 203.95 -5.66 L 204.61 -5.98 L 204.61 -5.98 Q 205.2 -5.51 205.98 -3.95 L 205.98 -3.95 L 205.2 -3.48 L 205.2 -3.48 Q 205.08 -3.87 204.92 -4.14 L 204.92 -4.14 L 203.55 -3.98 L 203.55 -2.58 L 204.34 -2.58 L 204.34 -2.58 Q 204.77 -2.58 205.23 -2.66 L 205.23 -2.66 L 205.23 -2.66 Q 205.35 -2.66 205.39 -2.66 L 205.39 -2.66 L 205.39 -1.84 L 205.39 -1.84 Q 205.35 -1.84 205.27 -1.84 L 205.27 -1.84 L 205.27 -1.84 Q 204.77 -1.91 204.34 -1.91 L 204.34 -1.91 L 203.55 -1.91 L 203.55 -0.7 L 205.74 -1.02 L 205.7 -0.2 L 200.82 0.47 L 200.63 -0.43 L 202.77 -0.63 L 202.77 -1.91 L 201.99 -1.91 L 201.99 -1.91 Q 201.48 -1.91 201.09 -1.84 L 201.09 -1.84 L 201.09 -1.84 Q 201.02 -1.84 200.98 -1.84 L 200.98 -1.84 L 200.98 -2.66 L 200.98 -2.66 Q 201.02 -2.66 201.09 -2.66 L 201.09 -2.66 L 201.09 -2.66 Q 201.56 -2.58 201.99 -2.58 L 201.99 -2.58 L 202.77 -2.58 L 202.77 -3.91 L 202.77 -3.91 Q 201.76 -3.83 201.21 -3.71 L 201.21 -3.71 L 201.21 -3.71 Q 201.13 -3.67 201.09 -3.67 L 201.09 -3.67 L 200.74 -4.49 L 200.74 -4.49 Q 200.78 -4.53 200.94 -4.57 L 200.94 -4.57 L 200.94 -4.57 Q 201.48 -4.8 201.72 -5.08 L 201.72 -5.08 L 201.72 -5.08 Q 202.42 -5.94 202.62 -6.6 L 202.62 -6.6 L 202.34 -6.6 L 202.34 -6.6 Q 201.72 -6.6 201.09 -6.52 L 201.09 -6.52 L 201.09 -6.52 Q 200.94 -6.52 200.9 -6.52 L 200.9 -6.52 Z M 206.33 -6.68 L 206.33 -6.68 L 206.33 -6.68 Q 207.11 -6.64 207.3 -6.52 L 207.3 -6.52 L 207.3 -6.52 Q 207.3 -6.48 207.27 -6.41 L 207.27 -6.41 L 207.27 -6.41 Q 207.15 -6.17 207.15 -5.78 L 207.15 -5.78 L 207.15 -2.66 L 207.15 -2.66 Q 207.15 -1.8 207.23 -1.29 L 207.23 -1.29 L 207.23 -1.29 Q 207.23 -1.21 207.23 -1.21 L 207.23 -1.21 L 206.33 -1.21 L 206.33 -1.21 Q 206.33 -1.25 206.33 -1.41 L 206.33 -1.41 L 206.33 -1.41 Q 206.41 -1.99 206.41 -2.66 L 206.41 -2.66 L 206.41 -5.51 L 206.41 -5.51 Q 206.41 -6.21 206.33 -6.68 Z M 217.34 -6.76 L 212.77 -6.76 L 212.77 -5.31 L 217.34 -5.31 L 217.34 -6.76 Z M 217.34 -4.65 L 212.77 -4.65 L 212.77 -3.05 L 217.34 -3.05 L 217.34 -4.65 Z M 217.34 -2.38 L 212.77 -2.38 L 212.77 -0.78 L 217.34 -0.78 L 217.34 -2.38 Z M 218.36 -7.62 L 218.36 -7.62 L 218.36 -7.62 Q 218.28 -7.34 218.28 -6.25 L 218.28 -6.25 L 218.28 -0.43 L 218.28 -0.43 Q 218.28 0.31 218.36 0.82 L 218.36 0.82 L 217.27 0.82 L 217.27 0.82 Q 217.34 0.23 217.34 -0.04 L 217.34 -0.04 L 212.77 -0.04 L 212.77 -0.04 Q 212.77 0.59 212.85 0.82 L 212.85 0.82 L 211.76 0.82 L 211.76 0.82 Q 211.84 0.66 211.84 -0.66 L 211.84 -0.66 L 211.84 -6.41 L 211.84 -6.41 Q 211.88 -6.99 211.8 -7.62 L 211.8 -7.62 L 211.8 -7.62 Q 212.42 -7.5 213.24 -7.54 L 213.24 -7.54 L 216.72 -7.54 L 216.72 -7.54 Q 217.81 -7.5 218.36 -7.62 Z M 221.84 -8.05 L 221.84 -8.05 L 221.84 -8.05 Q 222.89 -7.97 222.89 -7.89 L 222.89 -7.89 L 222.89 -7.89 Q 222.89 -7.85 222.85 -7.73 L 222.85 -7.73 L 222.85 -7.73 Q 222.7 -7.5 222.7 -7.11 L 222.7 -7.11 L 222.7 -5.86 L 222.7 -5.86 Q 223.52 -5.86 223.98 -5.94 L 223.98 -5.94 L 223.98 -5.16 L 223.98 -5.16 Q 223.67 -5.16 222.7 -5.16 L 222.7 -5.16 L 222.7 -3.55 L 223.32 -3.87 L 223.32 -3.87 Q 223.75 -3.36 224.18 -2.54 L 224.18 -2.54 L 223.44 -2.15 L 223.44 -2.15 Q 223.24 -2.73 222.7 -3.4 L 222.7 -3.4 L 222.7 -0.66 L 222.7 -0.66 Q 222.7 0.27 222.77 0.94 L 222.77 0.94 L 221.88 0.94 L 221.88 0.94 Q 221.95 0.08 221.95 -0.7 L 221.95 -0.7 L 221.95 -3.83 L 221.95 -3.83 Q 221.6 -2.5 220.78 -1.13 L 220.78 -1.13 L 220.78 -1.13 Q 220.59 -1.68 220.27 -1.99 L 220.27 -1.99 L 220.27 -1.99 Q 221.33 -3.44 221.76 -5.16 L 221.76 -5.16 L 221.76 -5.16 Q 220.9 -5.16 220.55 -5.12 L 220.55 -5.12 L 220.55 -5.9 L 220.55 -5.9 Q 221.45 -5.86 221.95 -5.86 L 221.95 -5.86 L 221.95 -7.11 L 221.95 -7.11 Q 221.95 -7.62 221.84 -8.05 Z M 224.49 -6.48 L 224.49 -7.3 L 224.49 -7.3 Q 224.65 -7.3 225.04 -7.3 L 225.04 -7.3 L 225.04 -7.3 Q 225.66 -7.27 226.02 -7.27 L 226.02 -7.27 L 227.03 -7.27 L 227.03 -7.27 Q 227.5 -7.27 228.2 -7.3 L 228.2 -7.3 L 228.2 -7.3 Q 228.55 -7.3 228.71 -7.3 L 228.71 -7.3 L 228.71 -6.48 L 228.71 -6.48 Q 228.16 -6.56 227.11 -6.56 L 227.11 -6.56 L 226.02 -6.56 L 226.02 -6.56 Q 225.2 -6.56 224.49 -6.48 L 224.49 -6.48 Z M 224.73 -3.09 L 224.73 -3.09 L 224.73 -3.09 Q 225.7 -2.85 225.74 -2.66 L 225.74 -2.66 L 225.74 -2.66 Q 225.7 -2.58 225.59 -2.5 L 225.59 -2.5 L 225.59 -2.5 Q 225.35 -2.38 225.27 -2.11 L 225.27 -2.11 L 225.27 -2.11 Q 224.61 -0.7 224.14 0 L 224.14 0 L 224.14 0 Q 223.83 -0.2 223.28 -0.27 L 223.28 -0.27 L 223.28 -0.27 Q 224.34 -1.68 224.73 -3.09 Z M 227.27 -2.73 L 228.05 -3.09 L 228.05 -3.09 Q 228.87 -2.07 229.69 -0.66 L 229.69 -0.66 L 228.79 -0.2 L 228.79 -0.2 Q 228.01 -1.84 227.27 -2.73 L 227.27 -2.73 Z M 225.43 -5 L 225.43 -5 L 227.62 -5 L 227.62 -5 Q 228.55 -5 229.38 -5.08 L 229.38 -5.08 L 229.38 -4.18 L 229.38 -4.18 Q 228.48 -4.26 227.62 -4.26 L 227.62 -4.26 L 226.91 -4.26 L 226.91 -0.12 L 226.91 -0.12 Q 227.19 0.63 225.43 0.86 L 225.43 0.86 L 225.43 0.86 Q 225.35 0.35 225.04 0 L 225.04 0 L 225.04 0 Q 226.37 0.12 226.17 -0.47 L 226.17 -0.47 L 226.17 -4.26 L 225.43 -4.26 L 225.43 -4.26 Q 224.77 -4.26 224.02 -4.18 L 224.02 -4.18 L 224.02 -4.18 Q 224.06 -4.18 223.98 -4.18 L 223.98 -4.18 L 223.98 -5.04 L 223.98 -5.04 Q 224.14 -5.04 224.53 -5.04 L 224.53 -5.04 L 224.53 -5.04 Q 225.04 -5 225.43 -5 Z M 232.54 -1.72 L 232.54 -1.72 L 232.54 -1.72 Q 231.45 -1.6 231.33 -0.51 L 231.33 -0.51 L 231.33 -0.51 Q 231.45 0.51 232.54 0.63 L 232.54 0.63 L 232.54 0.63 Q 233.59 0.51 233.71 -0.51 L 233.71 -0.51 L 233.71 -0.51 Q 233.59 -1.6 232.54 -1.72 Z M 232.54 -2.15 L 232.54 -2.15 L 232.54 -2.15 Q 234.02 -1.99 234.14 -0.51 L 234.14 -0.51 L 234.14 -0.51 Q 233.98 0.86 232.54 1.02 L 232.54 1.02 L 232.54 1.02 Q 231.05 0.86 230.9 -0.51 L 230.9 -0.51 L 230.9 -0.51 Q 231.02 -2.03 232.54 -2.15 Z"></path>
            </g>
        </g>
    </g>
</g>
</svg>