<?xml version="1.0" standalone="no"?>
<!DOCTYPE svg PUBLIC "-//W3C//DTD SVG 20010904//EN"
 "http://www.w3.org/TR/2001/REC-SVG-20010904/DTD/svg10.dtd">
<svg version="1.0" xmlns="http://www.w3.org/2000/svg" xmlns:xlink="http://www.w3.org/1999/xlink" width="100%" height="100%" viewBox="0 0 100.000000 100.000000" preserveAspectRatio="xMidYMid meet" color-interpolation-filters="sRGB">  
<!-- <rect x="0" y="0" width="100%" height="100%" fill="#ff6600" fill-opacity="1"></rect> -->
<!-- <circle cx="55" cy="55" r="55"  fill="#ff6600"/> -->
<!-- <ellipse cx="55" cy="55" rx="60" ry="60" style="fill:#ff6600;"/> -->
<g fill="#fff" transform="translate(0,0)">
    <g transform="translate(0,0)">
        <path transform="translate(-1.12,27.403199996948)" d="M13.32-13.48L12.92-13.48L12.92-13.48Q11-13.48 10.16-12.74L10.16-12.74L10.16-12.74Q9.32-12 9.32-11.08L9.32-11.08L9.32-10.56L9.32-10.56Q9.32-9.40 10.16-8.68L10.16-8.68L10.16-8.68Q11-7.96 13.08-7.96L13.08-7.96L13.48-7.96L13.48-7.96Q15.52-7.96 16.96-7.46L16.96-7.46L16.96-7.46Q18.40-6.96 19.34-6.12L19.34-6.12L19.34-6.12Q20.28-5.28 20.72-4.18L20.72-4.18L20.72-4.18Q21.16-3.08 21.16-1.92L21.16-1.92L21.16-1.92Q21.16 0.64 19.52 2.30L19.52 2.30L19.52 2.30Q17.88 3.96 15.08 4L15.08 4L5.68 4.12L5.68 4.12Q4.28 4.12 3.38 3.68L3.38 3.68L3.38 3.68Q2.48 3.24 1.94 2.56L1.94 2.56L1.94 2.56Q1.40 1.88 1.24 1.06L1.24 1.06L1.24 1.06Q1.08 0.24 1.18-0.50L1.18-0.50L1.18-0.50Q1.28-1.24 1.60-1.80L1.60-1.80L1.60-1.80Q1.92-2.36 2.40-2.56L2.40-2.56L2.40-2.56Q3.12-2.84 3.66-2.70L3.66-2.70L3.66-2.70Q4.20-2.56 4.62-2.18L4.62-2.18L4.62-2.18Q5.04-1.80 5.40-1.28L5.40-1.28L5.40-1.28Q5.76-0.76 6.12-0.30L6.12-0.30L6.12-0.30Q6.48 0.16 6.90 0.48L6.90 0.48L6.90 0.48Q7.32 0.80 7.88 0.80L7.88 0.80L9.28 0.92L9.28 0.92Q10.48 0.96 11.24 0.78L11.24 0.78L11.24 0.78Q12 0.60 12.42 0.26L12.42 0.26L12.42 0.26Q12.84-0.08 12.98-0.54L12.98-0.54L12.98-0.54Q13.12-1 13.16-1.56L13.16-1.56L13.16-1.52L13.16-1.64L13.16-1.88L13.16-1.64L13.16-1.64Q13.12-2.16 12.82-2.68L12.82-2.68L12.82-2.68Q12.52-3.20 11.98-3.60L11.98-3.60L11.98-3.60Q11.44-4 10.70-4.22L10.70-4.22L10.70-4.22Q9.96-4.44 9.12-4.44L9.12-4.44L7.84-4.36L7.84-4.36Q6.32-4.36 5.08-4.84L5.08-4.84L5.08-4.84Q3.84-5.32 2.96-6.12L2.96-6.12L2.96-6.12Q2.08-6.92 1.60-8L1.60-8L1.60-8Q1.12-9.08 1.12-10.28L1.12-10.28L1.12-10.28Q1.12-10.72 1.22-11.42L1.22-11.42L1.22-11.42Q1.32-12.12 1.66-12.90L1.66-12.90L1.66-12.90Q2-13.68 2.58-14.44L2.58-14.44L2.58-14.44Q3.16-15.20 4.14-15.84L4.14-15.84L4.14-15.84Q5.12-16.48 6.54-16.88L6.54-16.88L6.54-16.88Q7.96-17.28 9.92-17.28L9.92-17.28L14.92-17.24L14.92-17.24Q16.72-17.24 17.90-16.74L17.90-16.74L17.90-16.74Q19.08-16.24 19.74-15.48L19.74-15.48L19.74-15.48Q20.40-14.72 20.62-13.80L20.62-13.80L20.62-13.80Q20.84-12.88 20.76-12.06L20.76-12.06L20.76-12.06Q20.68-11.24 20.32-10.62L20.32-10.62L20.32-10.62Q19.96-10 19.48-9.80L19.48-9.80L19.48-9.80Q18.76-9.52 18.30-9.68L18.30-9.68L18.30-9.68Q17.84-9.84 17.50-10.24L17.50-10.24L17.50-10.24Q17.16-10.64 16.86-11.20L16.86-11.20L16.86-11.20Q16.56-11.76 16.12-12.26L16.12-12.26L16.12-12.26Q15.68-12.76 15.02-13.10L15.02-13.10L15.02-13.10Q14.36-13.44 13.32-13.48L13.32-13.48ZM30.92-7.72L34.28-7.68L34.28-7.68Q34.84-7.68 35.16-8.08L35.16-8.08L35.16-8.08Q35.60-8.52 35.60-9.04L35.60-9.04L35.60-12.60L35.60-12.60Q35.60-13.16 35.22-13.54L35.22-13.54L35.22-13.54Q34.84-13.92 34.28-13.92L34.28-13.92L32.24-13.92L32.24-13.92Q31.76-13.92 31.34-13.52L31.34-13.52L31.34-13.52Q30.92-13.12 30.92-12.60L30.92-12.60L30.92-7.72ZM40.76 4.36L27.44 4.52L27.44 4.52Q25.60 4.52 24.40 3.32L24.40 3.32L24.40 3.32Q23.16 2.08 23.16 0.36L23.16 0.36L23.16-10.36L23.16-10.36Q23.12-10.48 23.12-10.62L23.12-10.62L23.12-10.62Q23.12-10.76 23.12-10.88L23.12-10.88L23.12-13.04L23.12-13.04Q23.12-14 23.48-14.82L23.48-14.82L23.48-14.82Q23.84-15.64 24.48-16.26L24.48-16.26L24.48-16.26Q25.12-16.88 25.94-17.24L25.94-17.24L25.94-17.24Q26.76-17.60 27.72-17.60L27.72-17.60L38.80-17.56L38.80-17.56Q39.72-17.56 40.54-17.20L40.54-17.20L40.54-17.20Q41.36-16.84 41.98-16.22L41.98-16.22L41.98-16.22Q42.60-15.60 42.96-14.76L42.96-14.76L42.96-14.76Q43.32-13.92 43.32-13L43.32-13L43.32-8.52L43.32-8.52Q43.32-6.68 41.96-5.32L41.96-5.32L41.96-5.32Q40.60-3.96 38.76-4L38.76-4L30.92-4.04L30.92-0.48L30.92-0.48Q30.92 0 31.38 0.40L31.38 0.40L31.38 0.40Q31.84 0.80 32.52 0.80L32.52 0.80L37.56 0.68L37.56 0.68Q38.12 0.68 38.68-0.18L38.68-0.18L38.68-0.18Q39.24-1.04 39.88-1.92L39.88-1.92L39.88-1.92Q40.52-2.80 41.30-3.26L41.30-3.26L41.30-3.26Q42.08-3.72 43.04-2.96L43.04-2.96L43.04-2.96Q43.32-2.68 43.56-2.06L43.56-2.06L43.56-2.06Q43.80-1.44 43.86-0.64L43.86-0.64L43.86-0.64Q43.92 0.16 43.82 1.04L43.82 1.04L43.82 1.04Q43.72 1.92 43.38 2.64L43.38 2.64L43.38 2.64Q43.04 3.36 42.40 3.84L42.40 3.84L42.40 3.84Q41.76 4.32 40.76 4.36L40.76 4.36ZM52.76-24.92L57.36-16.76L61.68-24.84L61.68-24.84Q62.28-26.12 63.20-26.74L63.20-26.74L63.20-26.74Q64.12-27.36 65.12-27.40L65.12-27.40L65.12-27.40Q66.12-27.44 67.06-26.98L67.06-26.98L67.06-26.98Q68-26.52 68.58-25.68L68.58-25.68L68.58-25.68Q69.16-24.84 69.24-23.68L69.24-23.68L69.24-23.68Q69.32-22.52 68.64-21.16L68.64-21.16L61.64-9.24L61.64 0.04L61.64 0.04Q61.64 0.88 61.32 1.64L61.32 1.64L61.32 1.64Q61 2.40 60.44 2.98L60.44 2.98L60.44 2.98Q59.88 3.56 59.12 3.88L59.12 3.88L59.12 3.88Q58.36 4.20 57.48 4.20L57.48 4.20L57.48 4.20Q56.60 4.20 55.84 3.88L55.84 3.88L55.84 3.88Q55.08 3.56 54.50 2.98L54.50 2.98L54.50 2.98Q53.92 2.40 53.60 1.64L53.60 1.64L53.60 1.64Q53.28 0.88 53.28 0.04L53.28 0.04L53.28-9.32L46.52-21.56L46.52-21.56Q46-22.72 46.12-23.70L46.12-23.70L46.12-23.70Q46.24-24.68 46.76-25.38L46.76-25.38L46.76-25.38Q47.28-26.08 48.08-26.46L48.08-26.46L48.08-26.46Q48.88-26.84 49.76-26.82L49.76-26.82L49.76-26.82Q50.64-26.80 51.44-26.34L51.44-26.34L51.44-26.34Q52.24-25.88 52.76-24.92L52.76-24.92ZM89.44-13.20L89.44 1.08L90.40 1.08L90.40 1.08Q91.16 1.08 91.56 1.58L91.56 1.58L91.56 1.58Q91.96 2.08 91.96 2.68L91.96 2.68L91.96 2.68Q91.96 3.28 91.56 3.78L91.56 3.78L91.56 3.78Q91.16 4.28 90.32 4.28L90.32 4.28L85.92 4.28L85.92 4.28Q85.12 4.28 84.40 3.96L84.40 3.96L84.40 3.96Q83.68 3.64 83.12 3.12L83.12 3.12L83.12 3.12Q82.32 3.48 81.34 3.64L81.34 3.64L81.34 3.64Q80.36 3.80 79.24 3.84L79.24 3.84L74.36 3.88L74.36 3.88Q73.40 3.88 72.58 3.52L72.58 3.52L72.58 3.52Q71.76 3.16 71.12 2.54L71.12 2.54L71.12 2.54Q70.48 1.92 70.12 1.10L70.12 1.10L70.12 1.10Q69.76 0.28 69.76-0.68L69.76-0.68L69.76-13.12L69.76-13.12Q69.76-14.04 70.12-14.86L70.12-14.86L70.12-14.86Q70.48-15.68 71.08-16.30L71.08-16.30L71.08-16.30Q71.68-16.92 72.50-17.30L72.50-17.30L72.50-17.30Q73.32-17.68 74.28-17.68L74.28-17.68L84.88-17.72L84.88-17.72Q86.68-17.76 88.12-16.40L88.12-16.40L88.12-16.40Q89.44-15 89.44-13.20L89.44-13.20ZM81.72-0.28L81.72-12.68L81.72-12.68Q81.72-13.16 81.32-13.64L81.32-13.64L81.32-13.64Q80.96-14 80.40-14L80.40-14L78.88-13.96L78.88-13.96Q78.32-13.96 77.94-13.58L77.94-13.58L77.94-13.58Q77.56-13.20 77.56-12.64L77.56-12.64L77.56-1.12L77.56-1.12Q77.56-0.64 77.92-0.20L77.92-0.20L77.92-0.20Q78.32 0.20 78.88 0.20L78.88 0.20L81.76 0.20L81.76 0.20Q81.72 0.08 81.72-0.06L81.72-0.06L81.72-0.06Q81.72-0.20 81.72-0.28L81.72-0.28Z"></path>
    </g> 
    <rect fill="#fff" height="3" x="0" y="35.66319942474365" width="90.83999633789062"></rect> 
    <g transform="translate(6.7941741943359375,41.40320014953613)">
        <path transform="translate(-0.56026785714286,8.8125)" d="M7.17-6.09L7.17-6.09L6.09-6.09L6.09-6.09Q6-7.73 3.94-7.83L3.94-7.83L3.94-7.83Q2.02-7.78 2.02-6.33L2.02-6.33L2.02-6.33Q2.02-5.39 3.05-5.25L3.05-5.25L5.48-4.69L5.48-4.69Q7.41-4.22 7.41-2.34L7.41-2.34L7.41-2.34Q7.36 0.05 4.03 0.14L4.03 0.14L4.03 0.14Q2.20 0.14 1.45-0.61L1.45-0.61L1.45-0.61Q0.52-1.31 0.56-2.77L0.56-2.77L1.69-2.77L1.69-2.77Q1.73-0.80 4.03-0.75L4.03-0.75L4.03-0.75Q6.28-0.80 6.33-2.20L6.33-2.20L6.33-2.20Q6.52-3.38 4.45-3.75L4.45-3.75L2.67-4.13L2.67-4.13Q0.84-4.64 0.84-6.19L0.84-6.19L0.84-6.19Q0.98-8.72 3.84-8.81L3.84-8.81L3.84-8.81Q7.08-8.81 7.17-6.09ZM10.17-1.03L15.33-1.03L15.33 0L9 0L9-8.58L15.23-8.58L15.23-7.59L10.17-7.59L10.17-4.92L14.86-4.92L14.86-3.89L10.17-3.89L10.17-1.03ZM23.77-8.58L20.53-3.47L20.53 0L19.36 0L19.36-3.47L16.13-8.58L17.48-8.58L19.92-4.45L22.41-8.58L23.77-8.58ZM30.47 0L29.63-2.48L26.16-2.48L25.27 0L24.09 0L27.33-8.58L28.64-8.58L31.73 0L30.47 0ZM27.89-7.31L26.53-3.52L29.20-3.52L27.94-7.31L27.89-7.31ZM33.47-5.53L32.58-5.53L32.58-8.58L33.47-8.58L33.47-5.53ZM41.30-6.09L41.30-6.09L40.22-6.09L40.22-6.09Q40.13-7.73 38.06-7.83L38.06-7.83L38.06-7.83Q36.14-7.78 36.14-6.33L36.14-6.33L36.14-6.33Q36.14-5.39 37.17-5.25L37.17-5.25L39.61-4.69L39.61-4.69Q41.53-4.22 41.53-2.34L41.53-2.34L41.53-2.34Q41.48 0.05 38.16 0.14L38.16 0.14L38.16 0.14Q36.33 0.14 35.58-0.61L35.58-0.61L35.58-0.61Q34.64-1.31 34.69-2.77L34.69-2.77L35.81-2.77L35.81-2.77Q35.86-0.80 38.16-0.75L38.16-0.75L38.16-0.75Q40.41-0.80 40.45-2.20L40.45-2.20L40.45-2.20Q40.64-3.38 38.58-3.75L38.58-3.75L36.80-4.13L36.80-4.13Q34.97-4.64 34.97-6.19L34.97-6.19L34.97-6.19Q35.11-8.72 37.97-8.81L37.97-8.81L37.97-8.81Q41.20-8.81 41.30-6.09ZM49.55-7.64L47.48-7.64L47.48-4.97L49.55-4.97L49.55-4.97Q51.38-4.92 51.33-6.38L51.33-6.38L51.33-6.38Q51.33-7.64 49.55-7.64L49.55-7.64ZM50.02 0L46.31 0L46.31-8.58L50.11-8.58L50.11-8.58Q52.41-8.48 52.50-6.42L52.50-6.42L52.50-6.42Q52.50-5.16 51.38-4.64L51.38-4.64L51.38-4.64Q52.97-4.08 52.97-2.53L52.97-2.53L52.97-2.53Q52.83-0.09 50.02 0L50.02 0ZM49.73-3.98L47.48-3.98L47.48-0.98L49.97-0.98L49.97-0.98Q51.75-1.03 51.80-2.53L51.80-2.53L51.80-2.53Q51.80-3.98 49.73-3.98L49.73-3.98ZM54.28-8.58L55.45-8.58L55.45-1.03L59.81-1.03L59.81 0L54.28 0L54.28-8.58ZM67.73-4.27L67.73-4.27L67.73-4.27Q67.55-7.64 64.73-7.83L64.73-7.83L64.73-7.83Q61.88-7.69 61.73-4.27L61.73-4.27L61.73-4.27Q61.88-0.94 64.73-0.80L64.73-0.80L64.73-0.80Q67.55-0.98 67.73-4.27ZM68.91-4.27L68.91-4.27L68.91-4.27Q68.63 0 64.73 0.14L64.73 0.14L64.73 0.14Q60.80 0 60.52-4.27L60.52-4.27L60.52-4.27Q60.75-8.72 64.73-8.81L64.73-8.81L64.73-8.81Q68.63-8.67 68.91-4.27ZM76.69-3.61L74.06-3.61L74.06-4.59L77.81-4.59L77.81 0L77.06 0L76.78-1.08L76.78-1.08Q75.80 0.09 73.97 0.14L73.97 0.14L73.97 0.14Q72.23 0.14 71.30-0.75L71.30-0.75L71.30-0.75Q69.89-2.06 69.94-4.36L69.94-4.36L69.94-4.36Q70.27-8.63 74.02-8.81L74.02-8.81L74.02-8.81Q77.20-8.63 77.67-6L77.67-6L76.55-6L76.55-6Q76.08-7.78 73.97-7.83L73.97-7.83L73.97-7.83Q71.30-7.64 71.16-4.31L71.16-4.31L71.16-4.31Q71.16-0.75 74.02-0.75L74.02-0.75L74.02-0.75Q75.05-0.75 75.80-1.31L75.80-1.31L75.80-1.31Q76.73-2.06 76.69-3.61L76.69-3.61Z"></path>
    </g>
</g>
</svg>